<?xml version="1.0" encoding="utf-8"?>
<!-- Generator: Adobe Illustrator 17.0.0, SVG Export Plug-In . SVG Version: 6.00 Build 0)  -->
<!DOCTYPE svg PUBLIC "-//W3C//DTD SVG 1.1//EN" "http://www.w3.org/Graphics/SVG/1.1/DTD/svg11.dtd">
<svg version="1.1" id="Layer_1" xmlns:sketch="http://www.bohemiancoding.com/sketch/ns"
	 xmlns="http://www.w3.org/2000/svg" xmlns:xlink="http://www.w3.org/1999/xlink" x="0px" y="0px" width="506px" height="233.5px"
	 viewBox="91 0 506 233.5" enable-background="new 91 0 506 233.5" xml:space="preserve">
<title>Diversify + spotify-logo-horizontal-white-rgb</title>
<desc>Created with Sketch.</desc>
<g>
	<g>
		<g>
			<path fill="#FFFFFF" d="M238.303,169.549c-14.44,0-26.146,11.706-26.146,26.146c0,14.441,11.706,26.146,26.146,26.146
				c14.44,0,26.146-11.705,26.146-26.146C264.449,181.254,252.743,169.549,238.303,169.549z M250.293,207.26
				c-0.47,0.77-1.473,1.012-2.241,0.542c-6.14-3.753-13.868-4.6-22.969-2.521c-0.877,0.201-1.751-0.349-1.951-1.225
				c-0.201-0.877,0.347-1.751,1.226-1.951c9.96-2.277,18.503-1.297,25.394,2.914C250.521,205.489,250.763,206.492,250.293,207.26z
				 M253.493,200.141c-0.591,0.959-1.846,1.26-2.804,0.671c-7.026-4.319-17.741-5.57-26.053-3.047
				c-1.078,0.326-2.217-0.282-2.544-1.358c-0.325-1.078,0.283-2.215,1.359-2.542c9.496-2.882,21.301-1.486,29.371,3.474
				C253.78,197.928,254.082,199.184,253.493,200.141z M253.769,192.728c-8.428-5.005-22.33-5.465-30.375-3.023
				c-1.292,0.392-2.658-0.337-3.05-1.629c-0.392-1.293,0.337-2.658,1.63-3.051c9.236-2.804,24.589-2.262,34.291,3.497
				c1.162,0.69,1.543,2.191,0.854,3.351C256.43,193.034,254.928,193.418,253.769,192.728z"/>
		</g>
	</g>
	<g>
		<g>
			<path fill="#FFFFFF" d="M283.291,193.686c-4.514-1.077-5.318-1.832-5.318-3.42c0-1.5,1.412-2.509,3.512-2.509
				c2.036,0,4.054,0.767,6.17,2.344c0.064,0.048,0.144,0.067,0.223,0.054c0.079-0.012,0.149-0.055,0.195-0.121l2.204-3.107
				c0.091-0.128,0.066-0.304-0.056-0.402c-2.519-2.021-5.355-3.004-8.67-3.004c-4.874,0-8.279,2.925-8.279,7.11
				c0,4.488,2.937,6.077,8.012,7.304c4.32,0.995,5.049,1.828,5.049,3.319c0,1.651-1.474,2.678-3.847,2.678
				c-2.635,0-4.784-0.888-7.189-2.97c-0.06-0.051-0.141-0.075-0.217-0.071c-0.079,0.007-0.152,0.043-0.203,0.104l-2.471,2.941
				c-0.104,0.122-0.091,0.304,0.029,0.41c2.798,2.497,6.238,3.817,9.951,3.817c5.253,0,8.647-2.87,8.647-7.312
				C291.034,197.1,288.791,195.023,283.291,193.686z"/>
			<path fill="#FFFFFF" d="M302.917,189.234c-2.277,0-4.144,0.897-5.684,2.734V189.9c0-0.163-0.132-0.296-0.295-0.296h-4.042
				c-0.163,0-0.295,0.133-0.295,0.296v22.98c0,0.163,0.132,0.296,0.295,0.296h4.042c0.163,0,0.295-0.133,0.295-0.296v-7.254
				c1.54,1.729,3.408,2.573,5.684,2.573c4.23,0,8.513-3.256,8.513-9.481C311.43,192.491,307.147,189.234,302.917,189.234z
				 M306.73,198.717c0,3.17-1.953,5.382-4.748,5.382c-2.764,0-4.849-2.313-4.849-5.382c0-3.069,2.085-5.382,4.849-5.382
				C304.732,193.335,306.73,195.598,306.73,198.717z"/>
			<path fill="#FFFFFF" d="M322.407,189.234c-5.448,0-9.716,4.195-9.716,9.551c0,5.298,4.239,9.449,9.649,9.449
				c5.467,0,9.748-4.181,9.748-9.517C332.088,193.399,327.836,189.234,322.407,189.234z M322.407,204.132
				c-2.898,0-5.082-2.328-5.082-5.415c0-3.1,2.109-5.349,5.016-5.349c2.916,0,5.116,2.328,5.116,5.417
				C327.455,201.884,325.332,204.132,322.407,204.132z"/>
			<path fill="#FFFFFF" d="M343.722,189.603h-4.448v-4.548c0-0.163-0.132-0.296-0.295-0.296h-4.042
				c-0.164,0-0.296,0.133-0.296,0.296v4.548h-1.944c-0.163,0-0.294,0.133-0.294,0.296v3.474c0,0.163,0.132,0.296,0.294,0.296h1.944
				v8.989c0,3.633,1.808,5.474,5.374,5.474c1.45,0,2.653-0.299,3.787-0.942c0.092-0.051,0.149-0.151,0.149-0.256v-3.308
				c0-0.102-0.053-0.198-0.14-0.252c-0.088-0.055-0.198-0.058-0.288-0.013c-0.779,0.392-1.532,0.573-2.373,0.573
				c-1.297,0-1.876-0.589-1.876-1.908v-8.356h4.448c0.163,0,0.295-0.133,0.295-0.296V189.9
				C344.017,189.736,343.885,189.603,343.722,189.603z"/>
			<path fill="#FFFFFF" d="M359.219,189.621v-0.559c0-1.643,0.63-2.376,2.043-2.376c0.843,0,1.519,0.167,2.278,0.42
				c0.093,0.029,0.191,0.015,0.267-0.041c0.078-0.056,0.122-0.146,0.122-0.24v-3.406c0-0.13-0.084-0.246-0.209-0.284
				c-0.801-0.238-1.825-0.483-3.36-0.483c-3.734,0-5.707,2.103-5.707,6.078v0.855h-1.942c-0.163,0-0.297,0.133-0.297,0.296v3.492
				c0,0.163,0.134,0.296,0.297,0.296h1.942v13.865c0,0.163,0.132,0.296,0.295,0.296h4.042c0.163,0,0.296-0.133,0.296-0.296V193.67
				h3.774l5.781,13.862c-0.656,1.456-1.302,1.746-2.183,1.746c-0.712,0-1.462-0.213-2.229-0.632
				c-0.072-0.04-0.158-0.046-0.236-0.022c-0.077,0.027-0.142,0.085-0.175,0.16l-1.37,3.006c-0.065,0.142-0.01,0.309,0.127,0.382
				c1.43,0.775,2.721,1.105,4.317,1.105c2.985,0,4.634-1.39,6.089-5.131l7.013-18.121c0.035-0.091,0.025-0.194-0.031-0.275
				c-0.056-0.08-0.145-0.129-0.243-0.129h-4.208c-0.126,0-0.239,0.08-0.28,0.198l-4.311,12.313l-4.722-12.321
				c-0.043-0.115-0.153-0.19-0.276-0.19H359.219z"/>
			<path fill="#FFFFFF" d="M350.235,189.603h-4.042c-0.163,0-0.296,0.133-0.296,0.296v17.635c0,0.163,0.133,0.296,0.296,0.296h4.042
				c0.163,0,0.296-0.133,0.296-0.296V189.9C350.531,189.736,350.398,189.603,350.235,189.603z"/>
			<circle fill="#FFFFFF" cx="348.234" cy="184.472" r="2.899"/>
		</g>
		<g>
			<path fill="#FFFFFF" d="M383.646,195.273c-1.6,0-2.845-1.285-2.845-2.845c0-1.56,1.261-2.86,2.859-2.86
				c1.6,0,2.845,1.285,2.845,2.843C386.506,193.973,385.246,195.273,383.646,195.273z M383.661,189.852
				c-1.457,0-2.56,1.158-2.56,2.577c0,1.418,1.095,2.56,2.545,2.56c1.457,0,2.56-1.157,2.56-2.577
				C386.207,190.995,385.111,189.852,383.661,189.852z M384.292,192.705l0.805,1.127h-0.678l-0.724-1.033h-0.623v1.033h-0.568
				v-2.986h1.332c0.694,0,1.15,0.355,1.15,0.952C384.985,192.287,384.702,192.586,384.292,192.705z M383.812,191.358h-0.741v0.944
				h0.741c0.37,0,0.59-0.181,0.59-0.473C384.402,191.522,384.182,191.358,383.812,191.358z"/>
		</g>
	</g>
</g>
<g>
	<path fill="#FFFFFF" d="M114.129,167.952c-2.833-3.304-5.075-6.609-6.727-9.913c-1.652-3.304-2.914-6.296-3.777-8.97
		c-0.867-2.677-1.457-4.997-1.77-6.962c-0.317-1.966-0.553-3.187-0.708-3.659c-0.159-0.785-0.277-1.652-0.354-2.596
		c-0.082-0.945-0.119-1.889-0.119-2.833c0-4.875,0.982-10.186,2.95-15.933c1.966-5.742,4.758-11.094,8.38-16.05
		c3.618-4.957,8.102-9.088,13.454-12.392c5.348-3.305,11.408-4.957,18.175-4.957c0.944,0,1.848,0.04,2.714,0.118
		c0.863,0.082,1.77,0.199,2.714,0.354c1.889-7.553,3.619-14.593,5.193-21.125c1.571-6.528,2.987-12.311,4.248-17.349
		c-5.982,5.51-11.488,10.072-16.523,13.69c-5.038,3.622-8.419,5.51-10.149,5.666h-0.236h-0.236c-0.317,0-0.748-0.196-1.298-0.59
		c-0.553-0.392-1.221-1.299-2.007-2.715l-0.944,0.473l0.236-0.236l0.471-0.471c0-0.156-0.158-0.392-0.471-0.709
		c-1.262-2.201-2.324-4.09-3.187-5.665c-0.867-1.571-1.298-2.751-1.298-3.541c0-0.313,0.077-0.473,0.235-0.473
		c4.404-1.729,9.125-3.972,14.162-6.726c5.034-2.752,9.991-6.174,14.871-10.268c2.36-1.571,4.721-3.541,7.081-5.901
		c2.36-2.36,4.798-4.603,7.317-6.727c2.515-2.124,5.152-3.972,7.906-5.547c2.752-1.571,5.783-2.36,9.088-2.36h1.889
		c5.192,0.63,9.755,2.833,13.69,6.61c3.931,3.776,7.199,8.578,9.795,14.397c2.597,5.824,4.64,12.274,6.137,19.356
		c1.494,7.081,2.478,14.243,2.95,21.48v0.236c0.313,1.733,0.431,3.541,0.354,5.428c-0.081,1.888-0.04,3.621,0.119,5.193
		l-0.236-0.236l-0.236,0.944v-2.124l-0.236,0.944v1.653v0.471l0.236,0.473l0.236-0.236v-0.708c0,0.317,0.077,0.471,0.236,0.471
		v-0.236c0,0.789-0.082,1.535-0.236,2.243c-0.159,0.708-0.236,1.221-0.236,1.534c0,0.317,0.037,0.513,0.118,0.59
		c0.078,0.082,0.119,0.277,0.119,0.59c-0.159,1.262-0.277,2.124-0.354,2.597c-0.082,0.473-0.119,1.416-0.119,2.833v0.708
		l0.236-0.236c-0.317,0.944-0.513,1.97-0.59,3.069c-0.081,1.102-0.277,2.124-0.59,3.068c0,0.789-0.159,1.653-0.473,2.597
		c-0.317,0.944-0.471,1.811-0.471,2.597c-0.159,0-0.236,0.081-0.236,0.235v0.236c0,1.416-0.394,3.267-1.18,5.547
		c-0.789,2.283-1.616,4.603-2.478,6.964c-0.867,2.36-1.693,4.642-2.479,6.845c-0.789,2.205-1.18,3.858-1.18,4.957
		c-0.158,0.158-0.236,0.317-0.236,0.471c0,0.159-0.081,0.317-0.235,0.473c-0.318,0.944-0.826,2.283-1.535,4.012
		c-0.708,1.733-1.457,3.146-2.242,4.249l0.236-0.473c-0.318,0.313-0.473,0.627-0.473,0.944c0,0.313-0.159,0.55-0.473,0.709
		l-0.235,0.236l0.235-0.236c-0.788,1.416-1.574,2.869-2.36,4.367c-0.788,1.494-1.574,2.951-2.36,4.366l-0.471-0.944
		c0.471-0.471,0.708-0.867,0.708-1.18v-0.471v-0.709l-0.708,1.18c-0.159,0.313-0.236,0.432-0.236,0.354
		c0-0.081-0.159,0.037-0.473,0.355l-0.235,0.235l1.18-1.652l0.471-0.944l-2.832,4.248l-0.236,0.944
		c-0.473,0.473-0.789,0.863-0.944,1.18l-0.473,0.473v0.236l-1.18,1.888h-0.473l-0.708,1.416c-0.473,0.471-0.708,0.944-0.708,1.416
		l0.235,0.708l2.125-3.777l-0.473,0.236l1.416-0.944c0,0.154,0.037,0.037,0.118-0.354c0.077-0.395,0.509-0.985,1.299-1.77
		l0.471-0.945l1.889-0.944l-0.709,1.18c-0.63,0.786-1.025,1.18-1.18,1.18l-0.236,0.473l-0.235,0.236h-0.236
		c0,0.154,0.077,0.235,0.236,0.235l-0.709,0.709l-0.708,0.944h0.236l-0.709,0.708c-0.789,1.259-1.615,2.36-2.478,3.305
		c-0.867,0.944-1.534,1.807-2.007,2.596c-5.193,5.979-11.448,10.977-18.766,14.989c-7.316,4.013-15.069,6.02-23.249,6.02
		c-1.103,0-2.206-0.082-3.305-0.236c-1.102-0.159-1.888-0.236-2.36-0.236h-0.235l-0.236-0.236h-1.416h0.236h-0.236h-1.416h-0.236
		l-1.888-0.471l-0.944-0.236l-1.18-0.236h0.236h-0.236c-0.789-0.317-1.616-0.553-2.479-0.708c-0.867-0.159-1.77-0.395-2.714-0.709
		l-0.944-0.471v0.235c-2.047-0.788-3.976-1.692-5.783-2.714c-1.811-1.025-3.581-2.164-5.311-3.422l-0.471-0.473l-1.653-1.653h0.236
		l-0.473-0.471h-0.235c-0.159,0-0.318-0.159-0.473-0.473l-0.236-0.471c-0.63-0.632-1.143-1.143-1.534-1.535
		c-0.394-0.394-0.749-0.907-1.063-1.534l-1.888-2.597c-0.159-0.158-0.553-0.708-1.18-1.652l-0.236-0.236l-0.944-1.888l0.236-0.236
		l-0.944-1.18c-0.789-1.733-1.535-3.504-2.243-5.311c-0.708-1.811-1.221-3.346-1.534-4.603l0.236,0.944l0.235,0.945l1.416,1.415
		l-0.236-0.235l0.473,0.471v-0.236l0.236,0.945c0.154,0.313,0.627,1.217,1.416,2.714c0.785,1.494,1.335,2.478,1.652,2.95v0.236
		c0.627,0.627,1.257,1.571,1.889,2.832c1.888,2.833,3.382,4.758,4.485,5.783c1.098,1.021,2.515,2.32,4.248,3.894l-0.471-0.236
		c0.313,0.313,0.391,0.473,0.235,0.473c-0.158,0-0.081,0.077,0.236,0.236v-0.236c0.313,0,1.022,0.391,2.124,1.18
		c1.1,0.785,2.043,1.335,2.833,1.652c1.416,1.1,2.987,2.043,4.721,2.833c1.571,0.786,3.541,1.416,5.901,1.888
		c2.36,0.473,5.111,0.709,8.261,0.709h0.944h0.236c1.73,0,3.541,0,5.428,0c1.889,0,3.541-0.236,4.957-0.709l-0.236,0.473
		c0.627,0,1.022-0.081,1.18-0.236c0.156,0,0.313-0.081,0.473-0.236c2.36-0.63,4.013-1.061,4.957-1.298s1.965-0.59,3.068-1.063
		c0,0.156,0.156,0.236,0.473,0.236c0.154-0.158,0.391-0.277,0.708-0.354c0.313-0.081,0.55-0.199,0.709-0.354l-0.473,0.708
		l2.36-0.708l0.236-0.473l0.708-0.236l-0.708,0.236v-0.471c0.627-0.318,1.217-0.632,1.77-0.945c0.55-0.317,1.14-0.63,1.77-0.944
		h-0.236c0-0.158,0.667-0.553,2.007-1.18c1.335-0.63,2.161-1.103,2.478-1.416v0.236c2.043-1.103,4.168-2.677,6.374-4.721
		c2.201-2.047,3.931-3.858,5.192-5.428l0.473,0.471c0.154,0,0.354-0.04,0.59-0.118c0.236-0.081,0.667-0.436,1.298-1.063l0.945-0.944
		l-0.236-0.708c0.154,0,0.236-0.159,0.236-0.473l-0.236-0.236l-0.944,0.945l-0.709,0.944l-0.708,0.236l3.304-3.305
		c0.313-0.471,0.667-0.944,1.063-1.415c0.391-0.473,0.745-0.945,1.061-1.416c-6.926,8.025-14.243,14.003-21.951,17.939
		c-7.712,3.931-15.579,5.901-23.604,5.901c-7.24,0-13.809-1.299-19.71-3.896C121.8,175.389,117.275,172.043,114.129,167.952z
		 M102.799,151.666h0.235c0.156,0.156,0.236,0.313,0.236,0.473l0.236,0.471c0-0.63-0.159-0.944-0.473-0.944v-0.471l0.236,0.235
		c-0.158-0.317-0.236-0.553-0.236-0.708c0-0.159-0.081-0.394-0.235-0.708v0.471l-0.473-0.944c0.154,0.313,0.236,0.627,0.236,0.944
		c-0.317-0.317-0.473-0.708-0.473-1.18l0.236-0.471l0.236,0.471c0-0.471-0.082-0.867-0.236-1.18
		c-0.159-0.317-0.236-0.63-0.236-0.944v0.236v0.471c0,0.156-0.081,0.236-0.236,0.236l0.236,1.653
		c-0.158-0.159-0.236-0.395-0.236-0.709v-0.235c0-0.159,0,0.195,0,1.061c0,0.863,0.156,1.376,0.473,1.534L102.799,151.666z
		 M102.799,153.319l-0.945-1.889h0.473l0.708,0.236l0.236,0.473l0.236,0.471l0.236,0.945l0.708,1.888l0.236,0.944l-0.473-0.708
		l0.236,0.471l-1.416-1.415l-0.235-0.945V153.319z M104.687,155.679l-0.708-1.416l0.471,1.18L104.687,155.679z M106.34,162.76
		h-0.473l0.708,0.944l0.473,0.708l0.236-0.471L106.34,162.76z M107.52,130.895c-0.159,0.789-0.236,1.574-0.236,2.36
		c0,0.789,0,1.574,0,2.36c-0.159,2.205-0.04,4.211,0.354,6.019c0.391,1.807,0.826,3.577,1.298,5.311
		c0.473,1.889,1.453,4.444,2.95,7.671c1.494,3.224,3.577,6.374,6.256,9.442c2.674,3.069,6.055,5.743,10.149,8.025
		c4.09,2.28,9.047,3.423,14.87,3.423c10.541,0,19.71-2.991,27.499-8.969c7.789-5.983,14.24-13.535,19.355-22.66
		c5.111-9.125,8.929-19.197,11.448-30.214c2.515-11.012,3.777-21.557,3.777-31.629c0-7.553-0.436-14.947-1.299-22.187
		c-0.867-7.236-2.205-13.69-4.012-19.356c-1.811-5.665-4.053-10.186-6.727-13.572c-2.677-3.382-5.747-5.075-9.205-5.075
		c-2.047,0-3.817,0.907-5.311,2.714c-1.497,1.812-3.267,3.896-5.311,6.256c2.987,0.317,4.485,0.867,4.485,1.652
		c-1.733,8.184-4.248,16.958-7.554,26.318c-3.304,9.364-6.768,19.002-10.385,28.915c4.249,2.047,7.827,4.526,10.74,7.436
		c2.909,2.914,5.269,5.982,7.081,9.205c1.807,3.227,3.105,6.531,3.894,9.913c0.785,3.386,1.18,6.573,1.18,9.56
		c0,3.777-0.436,7.162-1.299,10.149c-0.867,2.991-1.888,5.47-3.068,7.435c-1.18,1.966-2.283,3.46-3.304,4.486
		c-1.026,1.021-1.77,1.534-2.243,1.534c-1.103,0-2.518-0.867-4.248-2.597c-0.473,0.473-0.789,0.708-0.944,0.708l0.235-0.235
		l0.473-0.709c-1.888-1.888-3.541-3.5-4.957-4.838c-1.416-1.336-2.124-2.32-2.124-2.95l0.236-0.236
		c1.888-1.257,3.382-3.224,4.485-5.901c1.1-2.674,1.653-5.584,1.653-8.734c0-3.145-0.553-6.332-1.653-9.559
		c-1.103-3.224-2.991-6.255-5.665-9.088c0-0.313-0.436-0.667-1.299-1.061c-0.867-0.392-1.457-0.826-1.77-1.299v0.236
		c-0.317-0.154-0.59-0.354-0.825-0.59c-0.236-0.236-0.59-0.431-1.063-0.59c-0.63,1.574-1.38,3.386-2.243,5.428
		c-0.867,2.047-1.298,3.7-1.298,4.957l-0.236,0.709c-0.317,0.63-0.513,1.061-0.59,1.298c-0.081,0.236-0.199,0.59-0.354,1.063h0.236
		h-0.236v0.471c-0.317,0.789-0.553,1.38-0.708,1.77c-0.159,0.395-0.236,0.907-0.236,1.534c0,0.159,0.037,0.236,0.118,0.236
		c0.077,0,0.119,0.082,0.119,0.236c-1.262,4.566-2.324,9.088-3.187,13.572c-0.867,4.485-1.534,8.774-2.007,12.865l-0.236,0.944
		v0.708v0.709c0.156,0,0.236,0.118,0.236,0.354s0.077,0.354,0.236,0.354v0.944l0.236,0.473v0.708v-0.236v0.236
		c0,0.313,0.313,1.1,0.944,2.36l0.236,0.473c0.944,1.73,2.201,3.224,3.776,4.485l0.236,0.236l0.944,0.471l-0.235,0.236h0.235
		c0.156,0.156,0.236,0.196,0.236,0.119c0-0.082,0.077-0.042,0.236,0.118l1.888,1.18l1.416,0.473c0.156,0,0.313,0.037,0.473,0.118
		c0.154,0.077,0.391,0.118,0.708,0.118l0.944,0.473l0.945,0.236c1.571,0.313,2.909,0.471,4.012,0.471c0.313,0,0.55-0.04,0.709-0.118
		c0.154-0.081,0.391-0.118,0.708-0.118h-0.473l-0.471,0.235l-0.944,0.473h2.36l0.235-0.236l0.473-0.708h0.944
		c0,0.154-0.158,0.236-0.471,0.236h0.944v0.235c0.154,0,0.236-0.081,0.236-0.235l-0.709,0.471v-0.236h-0.236
		c-0.317,0-0.553,0.078-0.708,0.236l0.473-0.236v0.236l-0.236,0.236c0.627-0.159,1.335-0.236,2.124-0.236
		c0.154,0,0.431,0.077,0.826,0.236c0.391,0.154,0.59,0.627,0.59,1.416c0,0.471-0.553,0.944-1.653,1.416
		c-1.103,0.471-3.385,0.708-6.845,0.708c-1.733,0-3.935-0.317-6.609-0.944c-2.678-0.63-5.274-1.889-7.79-3.777
		c-2.518-1.888-4.644-4.603-6.372-8.144c-1.733-3.541-2.597-8.143-2.597-13.807c0-7.237,1.098-14.082,3.304-20.536
		c2.201-6.451,4.013-13.296,5.428-20.536c-0.471-0.154-1.261-0.235-2.36-0.235v-0.236c-0.317,0.158-0.825,0.277-1.534,0.354
		c-0.708,0.081-1.221,0.118-1.534,0.118v-0.235c-0.317,0.158-1.026,0.317-2.124,0.471c-1.103,0.159-2.047,0.317-2.833,0.473
		l0.236-0.236c-0.317,0-0.513,0.04-0.59,0.118c-0.081,0.082-0.199,0.119-0.354,0.119c-0.159,0-0.236,0.081-0.236,0.236h0.236
		c-0.944,0.158-1.852,0.471-2.714,0.944c-0.867,0.471-1.693,0.867-2.479,1.18l-0.236-0.944h0.236
		c0.473-0.156,0.709-0.392,0.709-0.709l0.235-0.471l-0.944,0.235c-0.158,0.159-0.236,0.199-0.236,0.119
		c0-0.077-0.081-0.037-0.235,0.118l-0.236,0.236l1.18-0.708l0.471-0.236l1.18-0.709l-2.832,1.416h-0.236
		c-0.159,0-0.277,0.04-0.354,0.119c-0.082,0.081-0.199,0.118-0.354,0.118l-0.473,0.944c-0.317,0-0.63,0.119-0.944,0.354
		c-0.317,0.236-0.395,0.355-0.236,0.355l-0.944,0.708l-1.18,0.473c0,0.158-0.082,0.317-0.236,0.471
		c-0.159,0.159-0.236,0.317-0.236,0.473l0.236,0.708l1.653-1.888l-0.236-0.236h0.944c-0.159,0,0.037-0.077,0.59-0.236
		c0.55-0.154,0.745-0.313,0.59-0.471l0.708-0.473l1.416,0.236l-0.708,0.708c-0.159,0.159-0.395,0.236-0.709,0.236
		c-0.158,0-0.235-0.077-0.235-0.236l-0.236,0.236l-0.236,0.236l-0.473,0.236l-0.471,0.471l-0.709,0.236
		c-0.317,0.159-0.553,0.354-0.708,0.59c-0.159,0.236-0.394,0.436-0.708,0.59c-3.777,3.777-6.886,7.871-9.324,12.274
		c-2.441,4.407-4.053,9.205-4.838,14.397l-0.236,0.709c0,0.158-0.04,0.277-0.119,0.354c-0.081,0.081-0.118,0.199-0.118,0.354
		l0.236,0.236h-0.236l0.236,0.708h-0.236c0.154,0,0.196,0.159,0.118,0.473c-0.081,0.317-0.04,0.473,0.119,0.473v1.652v0.709
		c0,0.471,0.037,0.944,0.118,1.415c0.077,0.473,0.119,0.945,0.119,1.416l0.235,0.236h-0.235l0.235,0.473
		c0.156,1.102,0.355,2.205,0.59,3.304c0.236,1.098,0.509,2.201,0.826,3.304l0.236,0.473l0.473,0.944h-0.236l0.236,0.471l0.235,0.236
		l0.945,2.36l0.708,1.653c0,0.154,0.154,0.55,0.473,1.18h0.235h-0.235l0.708,1.18h-0.236l0.709,0.708
		c0.313,0.944,0.825,1.889,1.534,2.833c0.708,0.944,1.298,1.73,1.77,2.36l-0.473-0.473l-0.236-0.471l-1.18-0.473v0.236l-0.471-0.236
		h0.236l-0.473-0.236c-0.473-0.317-0.907-0.826-1.298-1.534c-0.395-0.708-0.749-1.298-1.063-1.77h0.236
		c-0.789-0.317-1.693-1.457-2.714-3.423c-1.026-1.969-1.693-3.739-2.007-5.311l0.236,0.236v-0.471v-0.236v0.236
		c-0.159,0-0.355-0.355-0.59-1.063c-0.236-0.708-0.513-1.38-0.826-2.007l0.236-0.236c-0.318-0.317-0.473-1.098-0.473-2.36V140.1
		c-0.159-0.313-0.317-0.667-0.473-1.063c-0.158-0.391-0.235-0.904-0.235-1.534c0-0.154,0.037-0.273,0.118-0.354
		c0.077-0.077,0.118-0.196,0.118-0.354c-0.317-1.571-0.471-2.751-0.471-3.541C107.284,132.156,107.361,131.366,107.52,130.895z
		 M107.755,128.298c0,0.317-0.04,0.671-0.118,1.063c-0.081,0.394-0.118,0.825-0.118,1.298l0.235-0.236V128.298z M108.935,123.341
		c0.156,0.159,0.236,0.317,0.236,0.473c0,0.158-0.04,0.277-0.118,0.354c-0.082,0.081-0.119,0.199-0.119,0.354l-0.235-0.236
		C108.7,123.814,108.778,123.5,108.935,123.341z M109.172,122.634c-0.158,0.158-0.236,0.394-0.236,0.708
		C108.935,123.028,109.014,122.791,109.172,122.634z M109.644,120.981c0,0.317-0.159,0.63-0.473,0.944L109.644,120.981z
		 M109.172,165.121c0,0.154,0.077,0.313,0.236,0.471l-0.236-0.235h0.236l0.236,0.235
		C109.485,165.275,109.327,165.121,109.172,165.121z M111.061,117.204c0.154-0.154,0.235-0.313,0.235-0.471
		c0-0.156,0.078-0.313,0.236-0.473l0.473-0.236v0.473l-0.709,1.653l-0.235-0.709l-0.236,0.944l-0.236,0.236v-0.236
		c-0.159,0.473-0.394,1.026-0.708,1.653c0.313-0.473,0.508-0.944,0.59-1.416C110.548,118.149,110.743,117.677,111.061,117.204z
		 M110.116,167.008c0.313-0.317,0.392-0.471,0.236-0.471v0.471H110.116z M111.296,120.745l-0.944,0.709l1.416-1.18l0.236-1.18
		l-0.709,1.18V120.745z M110.352,145.529l0.236,0.473l0.473,0.236l-0.236-0.709l-0.236-0.235L110.352,145.529z M110.588,145.765
		l1.416,0.236l-0.944,0.236l-0.236-0.944l-0.473,0.235L110.588,145.765z M111.296,149.778l-0.471-0.944l0.236,0.235
		c0,0.156,0.037,0.273,0.118,0.355C111.255,149.501,111.296,149.619,111.296,149.778z M111.061,117.204
		c0.154-0.154,0.235-0.313,0.235-0.471c0-0.156,0.078-0.313,0.236-0.473l0.473-0.236v0.473l-0.709,1.653l-0.235-0.709V117.204z
		 M112.005,116.969l-0.709,1.888h0.709l0.471-0.708l-0.235-0.236l0.235-0.709L112.005,116.969z M112.005,116.969l0.471,0.235
		l-0.235,0.709l0.235,0.236l-0.471,0.708h-0.709l0.473-0.944L112.005,116.969z M111.532,120.037l-0.236,0.236v1.18l0.473-1.18
		l0.236-1.18L111.532,120.037z M112.712,113.9c-0.158,0.159-0.236,0.277-0.236,0.354c0,0.082-0.081,0.199-0.235,0.355
		C112.554,114.295,112.712,114.059,112.712,113.9z M112.476,169.605v-0.236l-0.235-0.236L112.476,169.605z M112.949,153.082v0.236
		l-0.236-0.236H112.949z M112.949,171.022h-0.236l0.709,0.471L112.949,171.022z M114.129,171.729c0.786,0.786,1.257,1.18,1.416,1.18
		L114.129,171.729z M115.545,109.888l0.708-0.709l0.709-0.944v-0.236c0.154-0.154,0.272-0.313,0.354-0.471
		c0.077-0.156,0.195-0.313,0.354-0.473l0.708,0.236l-0.471,0.708h0.236l-0.236,0.473l-0.944,0.471l-0.236,0.236h0.471l-0.944,1.18
		l-0.471,0.236c0,0.317-0.159,0.473-0.473,0.473l-0.236-0.473C115.073,110.754,115.228,110.518,115.545,109.888z M115.782,110.595
		l0.708-0.473l0.708-0.944h-0.471l0.236-0.236l0.944-0.471l0.236-0.473l-0.236-0.236l0.471-0.471l-0.708-0.236
		c-0.159,0.159-0.277,0.317-0.354,0.473c-0.082,0.158-0.199,0.317-0.354,0.471l-0.473,1.18h-0.473l-0.471,0.709
		c-0.317,0.63-0.473,0.867-0.473,0.708l0.236,0.473C115.622,111.068,115.782,110.912,115.782,110.595z M116.017,155.207
		l-0.471-0.471l-0.236-0.473l-0.236,0.236l0.709,0.708H116.017z M117.197,159.456l-0.471-0.473l0.708,0.236l-0.236-0.236
		l0.945,0.473l0.471,0.235v0.473l1.18,0.473l-0.708,0.471h-0.709l-2.124-0.471l1.416-0.709L117.197,159.456z M117.197,159.456
		l0.473,0.708l-0.708-0.708H117.197z M119.086,177.394h0.236l-0.709-0.708h-1.18l1.653,0.944V177.394v0.236V177.394z
		 M118.85,176.923l-0.708-0.236h-0.709l1.653,0.944l0.236-0.236L118.85,176.923z M119.086,161.108h-0.709l-0.235-0.236
		c0.313,0.156,0.471,0.273,0.471,0.355c0,0.077,0.077,0.195,0.236,0.354v-0.236l0.473,0.708v-0.235l0.471,0.235l-0.236-0.471
		c0.473,0,0.709,0.236,0.709,0.708h-0.473v0.236l0.944,0.473l-0.235-0.473l-0.473-0.708c0.154,0.154,0.313,0.235,0.473,0.235
		l-0.709-0.708l-0.236-0.473L119.086,161.108z M118.142,176.214l0.471,0.473c0-0.159-0.04-0.236-0.118-0.236
		c-0.082,0-0.119-0.081-0.119-0.236H118.142z M118.85,176.214l0.473,0.473l-0.473-0.236V176.214z M120.266,104.222l0.471,0.236
		v0.236c0.473,0,0.863-0.154,1.18-0.473l0.709-0.944v-0.471h-0.709l-0.471,0.235l-0.473,0.473L120.266,104.222z M121.21,104.458
		c0.313,0,0.55-0.077,0.708-0.236l0.709-0.944v-0.471h-0.709c-0.158,0.158-0.317,0.235-0.471,0.235l-0.473,0.473l-0.708,0.708
		l0.471,0.236v0.236C120.893,104.694,121.051,104.617,121.21,104.458z M127.819,99.974l-0.708,0.473
		c0.154,0.158-0.04,0.317-0.59,0.471c-0.553,0.159-0.749,0.236-0.59,0.236h-0.944l0.236,0.236l-1.653,1.888l-0.236-0.708
		c0-0.156,0.077-0.313,0.236-0.473c0.154-0.154,0.236-0.313,0.236-0.471l0.708-0.473l1.416-0.708c-0.159,0-0.081-0.119,0.236-0.355
		c0.313-0.235,0.627-0.354,0.944-0.354l0.473-0.944c0.154,0,0.272-0.037,0.354-0.118c0.077-0.078,0.195-0.119,0.354-0.119h0.236
		l2.832-1.416l-1.18,0.709l-0.471,0.236l-1.18,0.708l0.236-0.236c0.154-0.154,0.235-0.195,0.235-0.118
		c0,0.081,0.078,0.04,0.236-0.119l0.944-0.235l-0.235,0.471c0,0.317-0.236,0.553-0.709,0.709h-0.236l0.236,0.944L127.819,99.974z
		 M127.347,61.971l-0.236,0.236h-0.473l-0.944-0.236l0.944-0.708c0.156,0,0.236-0.037,0.236-0.119c0-0.077,0.077-0.118,0.236-0.118
		l0.236-0.236c0.313,0.317,0.471,0.553,0.471,0.709l-0.235,0.235L127.347,61.971z M127.583,181.407c0.154,0,0.235,0.037,0.235,0.118
		c0,0.078,0.078,0.119,0.236,0.119c-0.158-0.159-0.471-0.236-0.944-0.236H127.583z M127.819,181.407
		c0-0.159-0.081-0.236-0.235-0.236L127.819,181.407z M129.944,183.531l-0.473-0.236L129.944,183.531z M131.832,183.06l-0.473-0.236
		l0.236,0.236H131.832z M136.316,95.96v-0.235c-0.471,0-0.867,0.081-1.18,0.235l-1.888,0.945l3.068-0.236V95.96z M134.665,96.197
		l0.471-0.236c0.313-0.154,0.709-0.235,1.18-0.235v0.944l-3.068,0.236L134.665,96.197z M139.857,96.433l-0.236-0.236h0.236V96.433z
		 M141.51,96.197l0.471-0.236h-0.235L141.51,96.197z M144.814,131.366c-0.159,0.318-0.236,0.553-0.236,0.709
		c0,0.158-0.081,0.394-0.236,0.708l0.236,0.236l0.236-1.416V131.366z M144.578,133.019l-0.236-0.236
		c0.156-0.313,0.236-0.55,0.236-0.708c0-0.156,0.077-0.391,0.236-0.709v0.236L144.578,133.019z M145.522,131.839h-0.471
		l-0.236,1.653h0.473l0.471-1.416L145.522,131.839z M145.758,132.075l-0.708-0.236l-0.236,1.653h0.473l0.235-0.709L145.758,132.075z
		 M145.05,134.672v0.708l0.236,0.708l0.235-1.18l-0.235-1.18L145.05,134.672z M145.522,134.672l-0.235-0.945l-0.236,1.18l0.236,1.18
		l0.235-1.18V134.672z M146.467,184.475v-0.235l-0.236,0.235H146.467z M147.174,123.578c-0.159,0.317-0.277,0.63-0.354,0.944
		c-0.082,0.317-0.199,0.63-0.354,0.944l0.235-0.235l0.236-0.473L147.174,123.578z M146.938,124.758l0.236-1.18
		c-0.159,0.317-0.277,0.63-0.354,0.944c-0.082,0.317-0.199,0.63-0.354,0.944l0.235-0.235L146.938,124.758z M149.062,156.623
		l0.945,0.473h-0.236C149.612,157.096,149.376,156.936,149.062,156.623z M149.298,156.859l-0.236-0.236
		c0.313,0.313,0.55,0.473,0.709,0.473h0.236L149.298,156.859z M155.908,99.03c-0.159,0.158-0.236,0.317-0.236,0.471l0.708,0.236
		l-0.236-0.236h0.473l0.236,0.236l0.471,0.236c-0.317-0.313-0.553-0.509-0.708-0.59c-0.159-0.077-0.394-0.273-0.708-0.59
		l0.235,0.236H155.908z M155.908,99.501l0.471,0.236l-0.236-0.236h0.473l0.236,0.236l0.471,0.236
		c-0.317-0.313-0.553-0.509-0.708-0.59c-0.159-0.077-0.394-0.273-0.708-0.59l0.235,0.236h-0.235
		c-0.159,0.158-0.236,0.317-0.236,0.471H155.908z M158.269,159.927h-0.945v0.473l0.945-0.236V159.927z M158.032,100.681
		c0.154,0,0.236,0.082,0.236,0.236L158.032,100.681z M158.269,100.918c0-0.154-0.082-0.236-0.236-0.236L158.269,100.918z
		 M163.933,182.587l-1.889,0.473c-0.158,0.154-0.317,0.235-0.471,0.235h-0.236l-1.18,0.709l1.653-0.473l0.708-0.236L163.933,182.587
		z M162.281,183.06l1.653-0.473l-1.416,0.708l-0.708,0.236l-1.653,0.473l1.18-0.709h0.236l0.471-0.235H162.281z M163.697,160.636
		h-0.473l-0.471,0.235l-0.944,0.473h2.36l0.235-0.708v-0.473L163.697,160.636z M167.238,181.407l-1.416,0.236l0.236,0.236
		l-1.653,0.471l-0.471-0.471l1.416-0.709l1.888-0.471v0.471V181.407z M165.821,181.643l1.416-0.236v-0.708l-1.653,0.471
		l-1.652,0.709l0.471,0.471l1.653-0.471L165.821,181.643z M167.238,180.463l0.236-0.473l0.708-0.236l-0.708,0.236l-0.236-0.471
		l-1.18,0.471l-0.473,0.236l-0.235,0.236l-0.473,0.708L167.238,180.463z M165.585,180.227h-0.235h0.471H165.585z M167.71,143.877
		l0.708,0.708l-0.236,0.236l-0.471,0.708l-0.473,0.236l-1.18,0.473l0.944-1.416l0.473-0.473v-0.235L167.71,143.877z
		 M183.053,169.841v-0.236c-0.789,0.154-1.416,0.473-1.889,0.944c-0.158,0.156-0.236,0.313-0.236,0.473h0.236l-0.471,0.236
		l-1.416,1.18l-1.416,0.944c-0.63,0.627-0.944,1.098-0.944,1.416h0.236c0.154,0,0.313-0.082,0.471-0.236l0.944-0.473l1.889-1.416
		h-0.709l0.709-0.471c0,0.154,0.313,0,0.944-0.473c0.627-0.471,1.021-0.789,1.18-0.944h-0.473l0.945-0.708V169.841z M182.58,169.605
		c-0.63,0.313-1.103,0.627-1.416,0.944c-0.158,0.156-0.236,0.313-0.236,0.473h0.236l-1.652,1.416h-0.709l-0.944,0.944
		c-0.63,0.627-0.944,1.098-0.944,1.416h0.236c0.154,0,0.313-0.082,0.471-0.236l1.18-0.709l1.653-1.18h-0.709l0.709-0.471
		c0.154,0,0.313-0.082,0.471-0.236l0.945-0.473l0.708-0.708h-0.473l0.945-0.708v-0.473H182.58z M179.04,173.146l0.236-0.236
		l-0.709,0.473L179.04,173.146z M179.04,173.146l-0.473,0.236l0.709-0.473L179.04,173.146z M188.009,165.357
		c0.156,0,0.55-0.318,1.18-0.945l0.945-0.944l-0.236-0.708c0.154,0,0.236-0.159,0.236-0.473l-0.236-0.236l-1.18,1.18l-0.709,0.709
		l-1.415,0.944l0.708,0.708h0.236C187.692,165.592,187.851,165.511,188.009,165.357z M198.159,152.846
		c0.471-0.471,0.708-0.826,0.708-1.061c0-0.236,0-0.436,0-0.59v-0.709l-0.708,1.18c-0.159,0.313-0.236,0.432-0.236,0.354
		c0-0.081-0.159,0.037-0.473,0.355l-0.235,0.235l1.415-2.124l0.236-0.471l-2.832,4.248l-0.236,0.944
		c-0.317,0.313-0.672,0.746-1.063,1.299c-0.394,0.549-0.513,0.745-0.354,0.59l-1.18,1.888h-0.473l-0.708,1.416
		c-0.473,0.471-0.708,0.944-0.708,1.416l0.235,0.708l2.125-3.777l-0.473,0.236l1.416-0.944c0-0.159,0.037-0.236,0.118-0.236
		c0.077,0,0.273-0.317,0.59-0.944c0.313-0.317,0.473-0.513,0.473-0.59c0-0.082,0.077-0.199,0.236-0.354l0.471-0.945l2.124-0.944
		l-0.471-0.944V152.846z M202.88,143.877c0.313-0.63,0.785-1.416,1.416-2.36v-0.473L202.88,143.877z M202.88,143.877
		c0.313-0.63,0.785-1.416,1.416-2.36v-0.473L202.88,143.877z M206.42,137.032l-0.236,0.471l0.236-0.236l-0.236,0.473
		C206.184,137.426,206.261,137.19,206.42,137.032z M206.892,136.087c0.156,0,0.236-0.118,0.236-0.354c0-0.236,0-0.273,0-0.118
		l-0.236,0.236V136.087z M208.308,132.783c-0.158,0-0.236,0.082-0.236,0.236L208.308,132.783z M211.612,124.285
		c0.156-0.154,0.236-0.313,0.236-0.471c-0.158,0-0.236,0.118-0.236,0.354S211.612,124.444,211.612,124.285z M214.682,113.428
		c-0.159,0.158-0.236,0.317-0.236,0.471v0.473C214.445,113.9,214.523,113.586,214.682,113.428z M215.389,110.123v0.236v-0.944
		v-0.236c0,0.63-0.081,1.026-0.236,1.18h0.236V110.123z M215.389,109.179v0.709v0.471v-0.236l-0.236,0.236
		C215.309,110.205,215.389,109.809,215.389,109.179z M217.513,98.086v-1.18l0.473-1.18l-0.708,0.235c0,1.103-0.082,1.889-0.236,2.36
		v0.236l0.236,0.236L217.513,98.086z M217.278,95.96l0.708-0.235l-0.473,1.18v1.18l-0.235,0.708c0-0.154-0.082-0.236-0.236-0.236
		v-0.236C217.197,97.849,217.278,97.063,217.278,95.96z M217.75,82.034c0.156,0,0.236,0.317,0.236,0.944l-0.236,0.945v-1.653V82.034
		z M217.986,82.978l-0.236,0.945v-1.889C217.905,82.034,217.986,82.351,217.986,82.978z M217.986,86.755v-1.888l-0.236,0.944v1.653
		l0.236,0.471v0.473c0.154,0,0.236-0.077,0.236-0.236v-0.708l-0.236-0.473V86.755z M218.694,89.116l0.236,0.473l0.236-0.709v-0.235
		c0-0.156-0.04-0.273-0.118-0.355c-0.082-0.077-0.119-0.195-0.119-0.354v-0.236l-0.471-1.18l0.235,1.653V89.116z"/>
	<path fill="#FFFFFF" d="M220.817,141.753c-0.313-1.572-0.508-2.95-0.59-4.131c-0.077-1.18-0.118-2.397-0.118-3.659
		c-0.156-4.721,0.158-9.36,0.944-13.926c0.789-4.562,1.574-8.969,2.36-13.218c2.201-12.115,4.444-20.967,6.727-26.554
		c2.279-5.584,4.049-8.379,5.311-8.379c1.098,0,2.084,0.317,2.95,0.944c0.863,0.63,1.652,1.298,2.36,2.007
		c0.708,0.708,1.453,1.693,2.242,2.95c0,1.261-0.748,3.698-2.242,7.317c-1.497,3.621-3.267,9.759-5.311,18.411
		c-0.473,2.206-1.143,4.761-2.007,7.671c-0.867,2.914-1.733,5.941-2.597,9.088c-0.867,3.15-1.574,6.335-2.124,9.559
		c-0.553,3.227-0.826,6.178-0.826,8.851c0,0.317,0.037,0.63,0.119,0.944c0.077,0.318,0.118,0.632,0.118,0.945
		c0.473-0.473,1.611-1.336,3.423-2.597c1.807-1.257,3.028-2.438,3.658-3.541l1.653-1.653l1.18-0.708l0.471-0.944l0.473-0.473
		l0.236-0.236l0.944-0.944h-0.236c0.786-0.786,1.653-1.807,2.597-3.068l-0.236,0.471l-0.236,0.473l0.473-0.236l0.471-0.708v-0.473
		c0-0.154,0.078-0.313,0.236-0.473h0.236l-0.236,0.236l0.236-0.236l0.236-0.235v0.235l0.236-0.471v0.236l0.708-0.709
		c0.154-0.313,0.313-0.508,0.473-0.59c0.154-0.077,0.313-0.195,0.471-0.354c0.156-0.154,0.313-0.236,0.473-0.236h-0.236l0.236-0.236
		h0.236c0.313,0,0.627,0.082,0.944,0.236c0.313,0.159,0.471,0.395,0.471,0.709c0,0.158-0.198,0.354-0.59,0.59
		c-0.394,0.235-0.59,0.512-0.59,0.825c0,0.159,0.078,0.318,0.236,0.473c0-0.154-0.236,0-0.708,0.473v0.471c0-0.313,0-0.236,0,0.236
		c0,0.473-0.317,1.026-0.944,1.653l-0.236,0.708l-1.416,1.416l-0.473,1.18l-0.708,1.18c0,0.158-0.081,0.199-0.236,0.118
		c-0.158-0.077-0.236-0.037-0.236,0.119v0.471l-1.415,2.124c-0.473,0.789-1.103,1.77-1.889,2.95c-0.789,1.18-1.733,2.36-2.832,3.541
		c-1.103,1.18-2.324,2.243-3.659,3.187c-1.338,0.944-2.873,1.494-4.602,1.653c-1.103,0-2.243-0.354-3.423-1.063
		c-1.18-0.708-1.925-1.457-2.243-2.242L220.817,141.753z M236.159,58.667l0.236-1.18c0-0.154,0.037-0.273,0.118-0.354
		c0.078-0.077,0.119-0.196,0.119-0.354v-0.473c0-0.154,0.037-0.313,0.118-0.473c0.077-0.154,0.119-0.391,0.119-0.708l0.471,0.473
		v0.471v0.944h-0.471l0.235,0.236c0,0.317,0.078,0.473,0.236,0.473l0.709,0.236l-0.473-1.18l-0.236,0.235l0.473-0.471l0.236-0.236
		v-0.473c0-0.471,0.077-0.785,0.235-0.944l-0.235-0.236h-0.473c0,0.159-0.081,0.236-0.236,0.236v0.236l0.236-0.708l-0.236-0.945
		l0.473-2.596c0.154-0.156,0.313-0.236,0.471-0.236v-0.236l0.236-0.473l0.473-1.18c0-1.415,0.391-2.791,1.18-4.131
		c0.785-1.335,1.652-2.555,2.597-3.658c0.944-1.1,1.888-1.966,2.832-2.597c0.944-0.627,1.571-0.944,1.889-0.944
		c1.257,0,2.161,0.59,2.714,1.77c0.55,1.18,0.981,2.714,1.298,4.603v0.235l0.473,0.709l-0.473-0.473v1.18l0.709,0.473l-0.236,2.124
		l0.236,0.236l-0.236-0.236v0.236c0.154,0,0.236,0.081,0.236,0.236l-0.236,1.18v0.944l-0.236,1.416
		c-0.317,0.63-0.59,1.298-0.826,2.005c-0.236,0.709-0.435,1.222-0.59,1.535v-0.473v-0.473l-0.236-0.708l-0.708,2.124l0.473-0.236
		v0.473v0.236v0.236l-0.236-0.236v0.236l0.236,0.235v-0.235v0.471h-0.236c0.154,0,0.236,0.082,0.236,0.236l-0.236-0.236
		l-0.473-0.236c-0.158,0.159-0.236,0.277-0.236,0.355c0,0.081-0.081,0.198-0.235,0.354l0.471,0.471l0.236,0.473l-0.236-0.236
		c0.156,0.159,0.236,0.395,0.236,0.709l-0.708,0.944v0.236l-0.473,1.415c-0.159,0.318-0.317,0.709-0.473,1.18
		c-0.158,0.473-0.317,0.789-0.471,0.945l-0.236-0.236v0.236h-0.236c0.156,0,0.236,0.158,0.236,0.471
		c-0.317,0.317-0.473,0.63-0.473,0.944c0,0.318-0.235,0.632-0.708,0.945h-0.236l-0.944,1.18c-0.473,0.944-1.18,1.497-2.124,1.652
		h-0.236c-0.63,0.317-1.103,0.473-1.416,0.473c-0.63,0-1.18-0.236-1.652-0.709l0.235-0.235l-0.235-0.236
		c-0.159,0-0.236,0.081-0.236,0.236c-0.317-0.786-0.63-1.259-0.944-1.416c-0.318-0.156-0.553-0.391-0.709-0.709h0.236l-0.236-0.471
		h0.473l-0.236-0.709l-0.236-0.235l-0.236,0.471c-0.317-0.627-0.471-1.021-0.471-1.18l-0.236-1.18c0-0.154-0.04-0.273-0.118-0.354
		c-0.082-0.077-0.119-0.273-0.119-0.59c0-0.313,0.037-0.55,0.119-0.708c0.077-0.156,0.118-0.392,0.118-0.709l-0.236-1.652
		l1.18-0.236l0.236-0.709h-0.473l-0.708-0.235v0.708H236.159z M237.339,61.971l0.236-0.471l-0.473,0.235V61.5
		c0.313,0,0.473-0.156,0.473-0.473h-0.473v-0.236l-0.235-0.236l-0.473,0.473v0.236l0.473,0.471l-0.473,0.236l0.236,0.236
		c0,0.317,0.077,0.473,0.236,0.473l0.471-0.473V61.971z M238.52,52.529v-0.708l-0.708-0.236l0.236,1.416L238.52,52.529z
		 M237.812,65.275l0.236,0.945l0.708-0.473l-0.236-0.236h0.236l-0.236-0.471l-0.236,0.235H237.812z M238.756,65.984v0.471
		l0.473,0.236V66.22L238.756,65.984z M243.713,125.465l-0.473,0.473l0.236,0.236v-0.236h0.236v-0.236V125.465z M245.837,63.624
		l0.236,0.236v-0.236l0.236-0.236l-0.236-0.236l-0.236,0.236V63.624z M247.961,61.971h0.236l-0.236-0.236V61.971z M248.434,61.263
		c-0.159,0-0.236-0.077-0.236-0.236L248.434,61.263z M250.794,51.586h0.471l-0.471-0.473V51.586z M251.03,50.642l0.471,0.236
		l-0.471-0.945V50.642z M251.265,47.809l0.236-0.236h-0.236V47.809z M251.738,49.698c0.154,0,0.236-0.078,0.236-0.236
		c-0.159,0-0.199,0.04-0.119,0.118C251.934,49.661,251.892,49.698,251.738,49.698z M252.211,46.865l-0.236,0.236
		C251.974,46.945,252.051,46.865,252.211,46.865z"/>
	<path fill="#FFFFFF" d="M283.837,63.624c2.987,0.789,4.486,2.124,4.486,4.012c0,1.262-0.277,2.873-0.826,4.839
		c-0.553,1.97-1.416,4.525-2.597,7.671c-1.18,3.15-2.677,7.044-4.485,11.683c-1.811,4.644-4.053,10.268-6.727,16.878
		c-1.888,4.721-4.171,10.19-6.845,16.404c-2.677,6.218-5.193,12.709-7.554,19.473l-0.471,0.709
		c-0.318,0.471-0.867,1.335-1.653,2.596c-0.789,1.259-1.653,1.889-2.597,1.889c-0.471,0-0.789-0.082-0.944-0.236l-1.653-2.833
		c-0.788-0.944-1.298-2.087-1.534-3.422c-0.236-1.336-0.435-2.161-0.59-2.479l-0.471-5.901c-0.159-1.257-0.277-2.555-0.355-3.894
		c-0.081-1.335-0.118-2.634-0.118-3.894c0-0.627,0.037-1.18,0.118-1.653c0.078-0.471,0.119-1.021,0.119-1.652
		c-0.159-1.1-0.236-2.124-0.236-3.069c0-0.944,0-1.888,0-2.832l0.236-0.944c0-0.473-0.082-0.709-0.236-0.709l0.236-0.944
		c-0.159,0-0.199-0.118-0.119-0.354c0.078-0.236,0.037-0.432-0.118-0.59v-1.18v-0.944l0.236-3.069l-0.236-0.471
		c0-1.259,0-2.439,0-3.541c0-1.1,0.154-2.202,0.473-3.305v-0.471v-1.18v0.236l0.235-0.473c-0.158-0.154-0.235-0.313-0.235-0.473
		l0.235-0.235l0.236-2.36l0.236-1.653c0.154-0.154,0.236-0.313,0.236-0.473c0-0.154,0.077-0.391,0.236-0.708h-0.236v-0.236
		c0.154,0,0.236,0.082,0.236,0.236l0.235-1.18l0.236-0.944c0.313-0.944,0.627-1.926,0.944-2.95c0.313-1.022,0.627-1.926,0.945-2.714
		l-0.236,0.471v0.709l0.236,1.18v-0.236l0.235,0.471v-0.235l-0.235,0.471v0.709c0,0.471-0.082,0.984-0.236,1.534
		c-0.159,0.553-0.236,1.061-0.236,1.534h-0.236v0.473v0.944l0.473-3.069c0.154-0.154,0.273-0.235,0.354-0.235
		c0.077,0,0.196-0.078,0.354-0.236c0-0.156-0.04-0.313-0.118-0.473c-0.082-0.154-0.119-0.313-0.119-0.471
		c0-0.156,0.037-0.236,0.119-0.236c0.077,0,0.118-0.077,0.118-0.236l0.473-1.18c0-0.473,0.236-0.944,0.708-1.416v-0.944l0.709-1.653
		c0.154-0.471,0.471-0.944,0.944-1.415l0.471-0.473l-0.235-0.236l0.471-0.236l0.473-0.235c0.785,0,1.18,0.394,1.18,1.18
		c-0.159,0.158-0.317,0.394-0.473,0.708c-0.317,0.63-0.471,1.026-0.471,1.18c0,0.159,0.077,0.317,0.235,0.473l-0.708,0.708
		c0,0.159,0.037,0.317,0.118,0.473c0.078,0.158,0.119,0.317,0.119,0.471c0,0.317-0.119,0.513-0.354,0.59
		c-0.236,0.082-0.355,0.199-0.355,0.354c0,0.318,0.037,0.59,0.119,0.826c0.077,0.236,0.118,0.513,0.118,0.826l-0.471,0.473v2.596
		c0,0.159-0.082,0.277-0.236,0.355c-0.159,0.081-0.236,0.198-0.236,0.354c0,0.158,0.037,0.277,0.118,0.354
		c0.078,0.081,0.119,0.199,0.119,0.354l-0.236,1.18v1.653c0,0.158-0.081,0.236-0.236,0.236c-0.158,0-0.236,0.081-0.236,0.235
		c0,0.159,0.078,0.277,0.236,0.355c0.156,0.081,0.236,0.198,0.236,0.354l-0.236,3.541c0,1.261-0.04,2.478-0.118,3.658
		c-0.082,1.18-0.119,2.401-0.119,3.659c0,4.721,0.236,9.677,0.709,14.87c4.248-11.329,7.749-20.849,10.503-28.561
		c2.752-7.708,5.034-13.926,6.846-18.647c1.807-4.721,3.304-8.102,4.484-10.149c1.18-2.043,2.242-3.069,3.187-3.069
		c0.313,0,0.667,0.04,1.061,0.119C282.694,63.351,283.207,63.468,283.837,63.624z M250.32,102.334l-0.473-0.473v0.945l0.473-0.236
		V102.334z M251.264,99.03l-0.236-0.236v0.473L251.264,99.03z M251.501,95.489l0.236-0.236h-0.236V95.489z M251.737,94.309h0.235
		v-0.236L251.737,94.309z M251.972,95.96v0.236v-1.18V95.96z"/>
	<path fill="#FFFFFF" d="M320.895,120.509c0,0.158,0.037,0.317,0.118,0.471c0.077,0.159,0.119,0.317,0.119,0.473
		c0-0.156-0.236,0-0.709,0.471c0,0.159,0.037,0.318,0.119,0.473c0.077,0.159,0.118,0.317,0.118,0.473
		c-0.159,0.317-0.317,0.512-0.473,0.59c-0.158,0.081-0.317,0.198-0.471,0.354v1.18v0.471h-0.473l-0.708,2.597l-0.709,0.473v0.708
		l-0.708,0.944l-0.473,1.416c-0.158,0.159-0.317,0.199-0.471,0.119c-0.159-0.078-0.236-0.037-0.236,0.118v0.473v0.235l-0.473,0.709
		c-0.158,0.471-0.708,1.416-1.652,2.832c-0.944,1.416-2.166,2.992-3.659,4.721c-1.497,1.73-3.186,3.342-5.075,4.839
		c-1.888,1.494-3.777,2.478-5.665,2.951v-0.236c-0.159,0.154-0.317,0.236-0.473,0.236c-0.158,0-0.317,0.077-0.471,0.236h0.236
		c-0.632,0.313-1.026,0.471-1.18,0.471h-0.236c-0.317,0-0.513,0.037-0.59,0.119c-0.082,0.077-0.199,0.118-0.354,0.118
		c-0.632,0-1.103-0.04-1.416-0.118c-0.317-0.082-0.63-0.119-0.944-0.119h-0.709l0.236-0.236c-0.317,0-0.553-0.04-0.708-0.118
		c-0.159-0.081-0.318-0.118-0.473-0.118l-0.236-0.236h-0.236l0.236,0.471c-0.789,0-1.497-0.235-2.124-0.708v0.236h-0.236
		c-0.63-0.473-1.025-0.867-1.18-1.18c-0.158-0.317-0.394-0.63-0.708-0.944v0.235c0.313,0.156,0.236,0.037-0.236-0.354
		c-0.473-0.394-0.944-0.984-1.416-1.77c-2.36-3.777-3.972-7.435-4.838-10.976c-0.863-3.541-1.299-7.277-1.299-11.212
		c0-10.069,1.262-18.843,3.777-26.318c2.516-7.472,5.311-13.649,8.38-18.529c3.068-4.875,5.978-8.498,8.733-10.858
		c2.751-2.36,4.367-3.541,4.84-3.541c0.785,0,1.335,0.159,1.652,0.473c0.473,0,1.376,0.277,2.714,0.826
		c1.336,0.553,2.715,1.652,4.131,3.304c1.416,1.652,2.674,3.935,3.777,6.845c1.1,2.914,1.653,6.727,1.653,11.448
		c0,2.677-0.63,5.51-1.889,8.498c-1.261,2.991-2.914,5.823-4.956,8.496c-2.047,2.678-4.367,5.039-6.964,7.081
		c-2.597,2.047-5.156,3.386-7.671,4.013h0.236c-1.262,0.63-2.206,1.026-2.833,1.18l-0.236,0.236h-0.471v0.236l-0.236-0.236
		l-1.653,0.708l-0.471,0.236v-0.236l-0.473,0.236l-0.471-0.236l0.235,0.236c-0.471,0-0.867,0.473-1.18,1.416
		c-0.317,0.944-0.553,2.047-0.708,3.304c-0.159,1.261-0.236,2.56-0.236,3.894c0,1.339,0,2.324,0,2.95
		c0,0.944,0.119,2.166,0.354,3.659c0.236,1.497,0.59,3.031,1.063,4.602c0.473,1.576,1.063,2.914,1.77,4.013
		c0.708,1.103,1.534,1.652,2.478,1.652c2.36,0,4.758-0.862,7.2-2.596c2.438-1.73,4.521-3.46,6.255-5.193l1.888-2.124l1.18-1.18
		l0.473-0.944l0.473-0.473l0.471-0.944l0.709-0.944l0.235-0.709c0.313-0.785,0.668-1.571,1.063-2.36
		c0.391-0.785,0.745-1.494,1.063-2.124l-0.236,0.473v0.471l0.236,0.944l0.235-0.235l0.709-1.18v-0.473l-0.709-0.473l0.236-0.471
		c0.156-0.473,0.314-0.709,0.473-0.709v0.473v-0.236l0.236-0.471v0.235l0.235-0.471v0.944l-0.235-0.236
		c-0.159,0-0.236,0.159-0.236,0.473v0.236v-0.236c0.154,0,0.236,0.158,0.236,0.471l0.235-0.235l-0.235,0.708h-0.236v0.473
		l0.471-1.18l0.709-0.473l0.236-0.944c0.313-0.627,0.627-1.1,0.944-1.416l0.471-0.473h-0.235l0.235-0.471l0.473-0.236
		c0.944,0,1.416,0.317,1.416,0.944c0,0.159-0.119,0.436-0.354,0.826C321.485,119.841,321.208,120.196,320.895,120.509z
		 M294.93,100.21c-0.473,1.733-0.985,3.541-1.534,5.428c-0.553,1.889-1.063,3.936-1.535,6.137l0.236,0.236v-0.473l1.416-0.944
		c4.09-2.515,7.554-5.938,10.385-10.268c2.833-4.325,4.249-9.478,4.249-15.46c0-3.46-0.632-6.214-1.889-8.261
		c-1.416,1.733-3.108,4.448-5.075,8.143C299.216,88.448,297.132,93.6,294.93,100.21z"/>
	<path fill="#FFFFFF" d="M352.758,122.634c0.314,0,0.627,0.081,0.944,0.236c0.313,0.158,0.473,0.394,0.473,0.708
		c0,0.159-0.082,0.277-0.236,0.354c-0.159,0.082-0.317,0.277-0.473,0.59c0,0.159,0.037,0.277,0.119,0.354
		c0.077,0.082,0.118,0.199,0.118,0.355l-0.473,0.235v0.473c0,0.159-0.118,0.277-0.354,0.354c-0.236,0.082-0.354,0.277-0.354,0.59
		c0,0.159,0.037,0.277,0.118,0.354c0.078,0.082,0.119,0.199,0.119,0.355h-0.473l0.236,0.471l-0.473,1.18
		c0,0.159-0.081,0.236-0.235,0.236h-0.236c0,0.159,0.037,0.277,0.118,0.354c0.077,0.082,0.119,0.199,0.119,0.354l-0.473,0.473
		l-0.236,0.944c0,0.159-0.081,0.236-0.236,0.236h-0.235c0,0.159,0.077,0.317,0.235,0.473l-0.708,2.124
		c-0.63,1.261-1.221,2.597-1.77,4.012c-0.553,1.416-1.221,2.992-2.007,4.721c-0.317,0.473-0.63,1.18-0.944,2.125
		c-0.317,0.944-0.789,1.925-1.416,2.95c-0.63,1.021-1.457,1.888-2.478,2.596c-1.026,0.709-2.401,1.063-4.131,1.063
		c-2.36,0-4.053-0.749-5.075-2.243c-1.026-1.497-1.693-3.186-2.007-5.075c-0.317-1.888-0.395-3.695-0.236-5.428
		c0.154-1.73,0.236-2.833,0.236-3.304c0-3.777,0.195-7.631,0.59-11.567c0.391-3.931,0.944-7.708,1.652-11.329
		c0.709-3.618,1.453-6.964,2.243-10.032c0.786-3.068,1.571-5.624,2.36-7.671c-1.733-0.786-3.7-2.201-5.901-4.248
		c-2.047,6.136-3.7,11.293-4.957,15.46c-1.261,4.171-2.755,8.615-4.485,13.336l-0.236,0.236l-0.236,0.236h0.236l-0.236,0.236v0.235
		v0.236l-0.235,0.709h0.235l-0.235,0.235l-0.236,1.416c-0.314,0.944-0.627,1.811-0.944,2.597v0.473l-0.236,0.235l0.236,0.236h-0.236
		l-0.473,0.944l-0.471,0.945h0.235l-0.471,0.471l-0.236,0.236c-0.154,0.317-0.313,0.671-0.473,1.063
		c-0.154,0.394-0.313,0.748-0.471,1.061h-0.236h0.236v-0.471l-0.473-0.709l-0.236,0.236l0.236-0.236
		c0-0.154-0.037-0.236-0.118-0.236c-0.077,0-0.119-0.077-0.119-0.235l0.709-0.945l-0.236-0.235c0-0.313-0.037-0.509-0.118-0.59
		c-0.078-0.078,0.277-1.063,1.061-2.95l0.236,0.235c0-0.154,0.04-0.195,0.118-0.118c0.082,0.081,0.119,0.04,0.119-0.118h-0.236
		v-0.473l-0.473,1.18h-0.471v0.708l-0.473,0.945l-0.708,1.18l-0.473,0.944l-0.236,0.471l-0.471,0.945l-0.473,0.708
		c-0.154,0.317-0.313,0.553-0.471,0.708l-0.236,0.236h0.236l-0.236,0.236l-0.236,0.236c-0.627,0-0.944-0.236-0.944-0.709
		l0.471-0.944l-0.235-0.471l0.471-0.236l-0.236-0.473l0.473-0.471v-0.945l0.236-1.18l0.236-0.708l0.235-0.944l0.473-0.473
		l-0.236-0.236l0.473-1.652c0.789-2.516,1.652-5.547,2.597-9.088c0.944-3.541,1.888-7.199,2.832-10.976
		c0.944-3.777,1.77-7.513,2.479-11.212c0.708-3.696,1.298-7.041,1.77-10.032c-1.416-2.674-2.36-5.23-2.833-7.671
		c-0.473-2.438-0.708-4.521-0.708-6.255c0-1.889,0-3.146,0-3.777c0-0.627,1.021-0.944,3.068-0.944c3.618,0,6.255,0.158,7.908,0.471
		c1.652,0.317,2.751,0.867,3.304,1.653c0.55,0.789,0.786,1.811,0.708,3.068c-0.081,1.262-0.04,2.833,0.119,4.721
		c0.154,1.889,0.667,4.131,1.534,6.727c0.863,2.597,2.478,5.547,4.838,8.851c1.1,0.317,2.043,0.826,2.833,1.534
		c0.786,0.709,1.453,1.416,2.007,2.124c0.55,0.709,1.14,1.535,1.77,2.479c0,0.471-0.159,1.025-0.473,1.652v0.236v0.236v-0.236v0.236
		c0,0.159,0.077,0.236,0.236,0.236l-0.473,0.236l0.236-0.236c0-0.156-0.081-0.236-0.236-0.236c0,1.261-0.63,3.386-1.888,6.374
		c-1.261,2.991-2.36,7.398-3.304,13.217c-0.473,3.15-1.262,6.964-2.36,11.448c-1.103,4.485-1.653,8.851-1.653,13.101
		c0.944-1.259,1.848-2.556,2.714-3.896c0.863-1.335,1.69-2.632,2.479-3.894l0.236-0.471l0.235-0.473v-0.236l0.236-0.236l0.709-1.18
		l0.708-1.415h-0.236l0.473-0.473l0.471-0.473c0.313-0.471,0.59-1.021,0.826-1.652c0.236-0.627,0.509-1.1,0.826-1.416v0.236
		l-0.236,0.471l0.236,0.709l0.473-0.944h0.471l-0.236-0.236l-0.471-0.473l0.236-0.236c0.154-0.313,0.313-0.471,0.471-0.471
		l-0.236,0.236h0.473v-0.473v0.236l0.236-0.236v0.708c-0.159,0-0.199-0.037-0.119-0.118c0.078-0.077,0.037-0.118-0.118-0.118
		c-0.159,0-0.317,0.081-0.473,0.235c0,0.159,0.078,0.236,0.236,0.236v-0.236c0.156,0,0.236,0.082,0.236,0.236l0.473-0.944
		l0.708-0.944l0.708-0.709c0.156-0.154,0.314-0.235,0.473-0.235h-0.236l0.236-0.236H352.758z M317.352,128.062h0.236h0.235H317.352z
		 M319.476,125.23h-0.236l0.236,0.471v-0.236V125.23z M319.712,123.341l-0.236-0.236v0.236H319.712z M323.017,116.26l0.236-0.471
		L323.017,116.26z"/>
	<path fill="#FFFFFF" d="M408.698,77.077c0.313,0,0.549,0.159,0.708,0.473c0.154,0.317,0.237,0.63,0.237,0.944
		c0,0.317-0.12,0.473-0.355,0.473s-0.512,0.081-0.825,0.236c-0.159,0.158-0.201,0.317-0.12,0.471
		c0.078,0.159,0.037,0.236-0.118,0.236h-0.235c-0.318,0-0.473,0.118-0.473,0.354c0,0.236-0.159,0.354-0.473,0.354
		c-0.317,0-0.471,0.119-0.471,0.355c0,0.235-0.082,0.354-0.236,0.354h-0.236l-1.18,1.18l-0.471-0.236l-0.709,0.708l-0.708,0.709
		l-0.473-0.236l-0.236,0.236c0,0.158,0.078,0.317,0.236,0.471l-1.652,0.945c-3.622,2.832-7.713,6.531-12.275,11.093
		c-4.566,4.566-8.734,9.364-12.51,14.399c1.257,2.991,2.751,6.1,4.485,9.324c1.73,3.227,2.597,6.255,2.597,9.087
		c0,1.576-0.395,3.386-1.18,5.43c-0.789,2.047-1.97,4.012-3.541,5.901c-1.576,1.888-3.423,3.459-5.547,4.721
		c-2.124,1.257-4.603,1.888-7.435,1.888c-2.206,0-4.094-0.435-5.666-1.298c-1.574-0.867-2.832-1.97-3.776-3.304
		c-0.945-1.336-1.653-2.715-2.125-4.131c-0.471-1.416-0.708-2.597-0.708-3.541c0-0.473,0.037-1.453,0.118-2.95
		c0.078-1.494,0.473-3.423,1.18-5.783c0.709-2.36,1.849-5.075,3.423-8.144c1.571-3.068,3.854-6.409,6.845-10.032
		c-0.317-0.785-0.553-1.452-0.708-2.005c-0.159-0.55-0.395-1.217-0.709-2.007c-0.944,1.888-1.888,3.74-2.832,5.547
		c-0.944,1.811-1.97,3.581-3.069,5.311l-1.888,4.956c-0.63,1.262-1.221,2.56-1.77,3.896c-0.553,1.338-1.14,2.714-1.77,4.131
		l-0.473,0.235c0,0.159-0.077,0.318-0.235,0.473l-0.236,0.473v0.471v0.236l-0.473,0.708l-0.236,0.473l-0.708,1.888l-1.653,4.249
		l-0.471,0.471v0.473v0.473l-0.944,1.18l-0.236,1.18l-0.473,0.471v0.236l-0.708,0.944c-0.313,0.627-0.59,1.257-0.826,1.889
		c-0.236,0.627-0.431,1.18-0.59,1.652v-0.471l0.236-0.236l-0.473-0.944v0.235l-0.236-0.235l0.236-0.236
		c0-0.159-0.037-0.277-0.118-0.354c-0.077-0.082-0.119-0.199-0.119-0.355l0.945-1.652v-0.236c0-0.473,0.235-1.376,0.708-2.714
		c0.473-1.336,0.867-2.243,1.18-2.714v0.235c0-0.154,0.04-0.195,0.118-0.118c0.082,0.081,0.119,0.04,0.119-0.118h-0.236l0.236-0.473
		c0-0.313,0.158-0.786,0.471-1.416l-0.235,0.236l-0.945,1.888l-0.944,1.18v0.945l-0.471,0.708l-0.709,1.416l-0.471,1.18
		c-0.156,0.317-0.273,0.553-0.355,0.708c-0.077,0.159-0.118,0.391-0.118,0.709c-0.154,0.313-0.236,0.549-0.236,0.708l0.236-0.236
		v0.473c-0.314,0.627-0.627,0.944-0.944,0.944c-0.313,0-0.473-0.159-0.473-0.473c0-0.158,0.04-0.512,0.119-1.061
		c0.081-0.553,0.118-1.063,0.118-1.534c0-0.156-0.037-0.273-0.118-0.355c-0.078-0.077-0.119-0.195-0.119-0.354l0.236-0.236
		l0.236-0.471l0.471-1.416l0.236-1.416l0.473-1.888l0.471-0.236v-0.708l0.473-1.416l0.708-0.473l-0.235-0.471l0.944-2.36
		c1.888-4.721,4.248-10.305,7.081-16.759c2.832-6.451,5.584-13.059,8.261-19.827c-0.317-1.73-0.63-3.383-0.944-4.957
		c-0.318-1.571-0.473-3.224-0.473-4.957l0.236-0.708c0-0.473-0.082-0.709-0.236-0.709h0.236v-0.471
		c-0.159-0.156-0.199-0.313-0.119-0.473c0.078-0.154,0.037-0.236-0.118-0.236v-1.18v-0.708l0.236-2.833v-0.471
		c0-0.786,0.118-1.612,0.354-2.479c0.236-0.863,0.509-1.688,0.826-2.478v-0.236l0.236-0.944v0.236l0.235-0.473h-0.235v-0.473h0.471
		l1.416-2.832l0.473-0.944h-0.236l0.708-0.709l0.473-0.708h-0.236c0.473-0.627,1.021-1.257,1.653-1.889
		c0.627-0.627,1.098-1.18,1.415-1.652v0.236l0.709-0.236v-0.709l0.471-0.471v0.236l0.236-0.236v0.236l0.236-0.473v0.236v-0.236
		l0.473-0.473l0.235-0.235c-0.158-0.156-0.235-0.473-0.235-0.945c0-0.785,0.862-1.415,2.596-1.888h0.236
		c2.674,0,4.444,0.867,5.311,2.597c0.863,1.733,1.299,3.463,1.299,5.192c0,2.519-0.749,6.454-2.243,11.802
		c-1.497,5.352-3.976,11.411-7.435,18.175c0.471,1.261,0.944,2.478,1.416,3.658c0.471,1.18,0.944,2.402,1.415,3.659
		c3.777-3.777,7.908-7.317,12.392-10.622c4.486-3.304,8.694-5.901,12.628-7.79l0.944-0.471l1.653-0.709l0.473,0.236l1.18-0.471
		l0.708-0.709h0.944l0.709-0.708l0.471,0.236l0.944-0.473l1.18-0.473l0.236-0.471l0.944-0.236c0.313,0,0.509-0.037,0.59-0.118
		c0.078-0.078,0.196-0.119,0.355-0.119h0.473L408.698,77.077z M345.675,137.976c0.159-0.156,0.236-0.391,0.236-0.709
		L345.675,137.976z M345.675,137.976c0.159-0.156,0.236-0.391,0.236-0.709L345.675,137.976z M346.62,135.852
		c0.158,0,0.235-0.078,0.235-0.236L346.62,135.852z M346.856,135.616l-0.235,0.236C346.778,135.852,346.856,135.774,346.856,135.616
		z M347.092,132.783v0.473l0.236-0.473H347.092z M347.092,133.255c0-0.156,0.082-0.313,0.236-0.473h-0.236V133.255z
		 M347.564,135.852l-0.473,0.235l0.236,0.473l0.236-0.473V135.852z M347.564,135.852l-0.473,0.235l0.236,0.473l0.236-0.473V135.852z
		 M347.564,146.001h0.236v0.236L347.564,146.001z M348.745,131.131l0.236,0.235C348.981,131.212,348.902,131.131,348.745,131.131z
		 M348.981,131.366c0-0.154-0.078-0.235-0.236-0.235L348.981,131.366z M353.937,121.217c-0.158,0.159-0.235,0.277-0.235,0.354
		c0,0.082-0.082,0.199-0.236,0.354v0.236l0.471-0.708V121.217z M353.465,122.161l0.471-0.708v-0.236
		c-0.158,0.159-0.235,0.277-0.235,0.354c0,0.082-0.082,0.199-0.236,0.354V122.161z M361.254,70.941h-0.236l-0.235,0.708h0.235
		L361.254,70.941z M361.018,71.413l-0.235,0.236h0.235l0.236-0.708h-0.236V71.413z M365.031,135.379
		c-0.159,0-0.118,0.04,0.118,0.118c0.236,0.082,0.59,0.119,1.063,0.119c0.944,0,2.124-0.391,3.541-1.18
		c1.416-0.786,2.201-2.516,2.36-5.193c0-0.785-0.236-1.848-0.708-3.187c-0.473-1.335-1.103-3.028-1.889-5.075
		c-1.733,3.15-2.951,5.864-3.658,8.144c-0.709,2.283-1.063,3.894-1.063,4.838C364.795,134.593,364.872,135.066,365.031,135.379z
		 M366.447,70.705c-0.473,1.888-0.709,3.777-0.709,5.665c0,0.789,0,1.534,0,2.243c0,0.708,0.078,1.457,0.236,2.242
		c1.571-4.248,2.674-8.062,3.304-11.448c0.627-3.382,1.1-5.859,1.416-7.435h-0.944h0.708l0.236-0.236
		c0-0.627-0.04-0.981-0.118-1.061c-0.082-0.077-0.119-0.196-0.119-0.354c-0.317,0.63-0.553,0.944-0.708,0.944
		c-0.159,0-0.236,0.081-0.236,0.236l-0.236,1.18l-0.471,0.235l-0.473,1.889c0,0.158-0.081,0.236-0.236,0.236h-0.235l-0.473,1.415
		l-0.236,1.18h-0.236c-0.158,0-0.235,0.082-0.235,0.236l0.235,0.473L366.447,70.705z M366.447,60.791v0.236l0.236-0.236H366.447z
		 M366.447,61.027l0.236-0.236h-0.236V61.027z M382.734,120.273h0.236l-0.236,0.708l-0.473-0.236l0.236-0.471H382.734z
		 M384.858,116.26l0.236,0.236c-0.159,0.159-0.199,0.277-0.118,0.354c0.077,0.082,0.037,0.199-0.119,0.354l-0.471,0.236v-0.236
		l0.235-0.235v-0.945L384.858,116.26z"/>
	<path fill="#FFFFFF" d="M386.98,141.753c-0.313-1.572-0.508-2.95-0.59-4.131c-0.077-1.18-0.118-2.397-0.118-3.659
		c-0.156-4.721,0.158-9.36,0.944-13.926c0.789-4.562,1.574-8.969,2.36-13.218c2.201-12.115,4.444-20.967,6.727-26.554
		c2.279-5.584,4.049-8.379,5.311-8.379c1.098,0,2.084,0.317,2.951,0.944c0.863,0.63,1.652,1.298,2.36,2.007
		c0.708,0.708,1.454,1.693,2.243,2.95c0,1.261-0.749,3.698-2.243,7.317c-1.497,3.621-3.267,9.759-5.311,18.411
		c-0.473,2.206-1.143,4.761-2.007,7.671c-0.867,2.914-1.733,5.941-2.597,9.088c-0.867,3.15-1.574,6.335-2.124,9.559
		c-0.553,3.227-0.826,6.178-0.826,8.851c0,0.317,0.037,0.63,0.119,0.944c0.077,0.318,0.118,0.632,0.118,0.945
		c0.473-0.473,1.611-1.336,3.423-2.597c1.807-1.257,3.028-2.438,3.658-3.541l1.653-1.653l1.18-0.708l0.471-0.944l0.473-0.473
		l0.236-0.236l0.944-0.944h-0.236c0.787-0.786,1.654-1.807,2.594-3.068l-0.235,0.471l-0.235,0.473l0.47-0.236l0.475-0.708v-0.473
		c0-0.154,0.078-0.313,0.235-0.473h0.235l-0.235,0.236l0.235-0.236l0.235-0.235v0.235l0.24-0.471v0.236l0.705-0.709
		c0.157-0.313,0.313-0.508,0.475-0.59c0.152-0.077,0.314-0.195,0.47-0.354c0.157-0.154,0.313-0.236,0.47-0.236h-0.235l0.235-0.236
		h0.24c0.313,0,0.627,0.082,0.94,0.236c0.314,0.159,0.475,0.395,0.475,0.709c0,0.158-0.198,0.354-0.59,0.59
		c-0.396,0.235-0.59,0.512-0.59,0.825c0,0.159,0.078,0.318,0.235,0.473c0-0.154-0.235,0-0.71,0.473v0.471c0-0.313,0-0.236,0,0.236
		c0,0.473-0.314,1.026-0.94,1.653l-0.24,0.708l-1.415,1.416l-0.47,1.18l-0.71,1.18c0,0.158-0.078,0.199-0.235,0.118
		c-0.157-0.077-0.235-0.037-0.235,0.119v0.471l-1.416,2.124c-0.473,0.789-1.103,1.77-1.889,2.95c-0.789,1.18-1.733,2.36-2.832,3.541
		c-1.103,1.18-2.324,2.243-3.659,3.187c-1.338,0.944-2.873,1.494-4.602,1.653c-1.103,0-2.243-0.354-3.423-1.063
		c-1.18-0.708-1.925-1.457-2.243-2.242L386.98,141.753z M402.322,58.667l0.236-1.18c0-0.154,0.037-0.273,0.118-0.354
		c0.078-0.077,0.119-0.196,0.119-0.354v-0.473c0-0.154,0.037-0.313,0.118-0.473c0.077-0.154,0.119-0.391,0.119-0.708l0.471,0.473
		v0.471v0.944h-0.471l0.235,0.236c0,0.317,0.078,0.473,0.236,0.473l0.709,0.236l-0.473-1.18l-0.236,0.235l0.473-0.471l0.236-0.236
		v-0.473c0-0.471,0.077-0.785,0.235-0.944l-0.235-0.236h-0.473c0,0.159-0.081,0.236-0.236,0.236v0.236l0.236-0.708l-0.236-0.945
		l0.473-2.596c0.154-0.156,0.314-0.236,0.471-0.236v-0.236l0.236-0.473l0.473-1.18c0-1.415,0.391-2.791,1.18-4.131
		c0.786-1.335,1.653-2.555,2.598-3.658c0.94-1.1,1.886-1.966,2.831-2.597c0.945-0.627,1.572-0.944,1.89-0.944
		c1.254,0,2.158,0.59,2.711,1.77c0.553,1.18,0.982,2.714,1.3,4.603v0.235l0.47,0.709l-0.47-0.473v1.18l0.71,0.473l-0.24,2.124
		l0.24,0.236l-0.24-0.236v0.236c0.157,0,0.24,0.081,0.24,0.236l-0.24,1.18v0.944l-0.235,1.416c-0.318,0.63-0.59,1.298-0.825,2.005
		c-0.235,0.709-0.433,1.222-0.59,1.535v-0.473v-0.473l-0.235-0.708l-0.71,2.124l0.475-0.236v0.473v0.236v0.236l-0.24-0.236v0.236
		l0.24,0.235v-0.235v0.471h-0.24c0.157,0,0.24,0.082,0.24,0.236l-0.24-0.236l-0.47-0.236c-0.157,0.159-0.235,0.277-0.235,0.355
		c0,0.081-0.083,0.198-0.235,0.354l0.47,0.471l0.235,0.473l-0.235-0.236c0.157,0.159,0.235,0.395,0.235,0.709l-0.705,0.944v0.236
		l-0.475,1.415c-0.157,0.318-0.318,0.709-0.47,1.18c-0.161,0.473-0.318,0.789-0.475,0.945l-0.235-0.236v0.236h-0.235
		c0.157,0,0.235,0.158,0.235,0.471c-0.318,0.317-0.47,0.63-0.47,0.944c0,0.318-0.235,0.632-0.71,0.945h-0.235l-0.945,1.18
		c-0.47,0.944-1.18,1.497-2.125,1.652h-0.235c-0.629,0.317-1.102,0.473-1.415,0.473c-0.63,0-1.18-0.236-1.652-0.709l0.235-0.235
		l-0.235-0.236c-0.159,0-0.236,0.081-0.236,0.236c-0.317-0.786-0.63-1.259-0.944-1.416c-0.318-0.156-0.553-0.391-0.709-0.709h0.236
		l-0.236-0.471h0.473l-0.236-0.709l-0.236-0.235l-0.236,0.471c-0.317-0.627-0.471-1.021-0.471-1.18l-0.236-1.18
		c0-0.154-0.04-0.273-0.118-0.354c-0.082-0.077-0.119-0.273-0.119-0.59c0-0.313,0.037-0.55,0.119-0.708
		c0.077-0.156,0.118-0.392,0.118-0.709l-0.236-1.652l1.18-0.236l0.236-0.709h-0.473l-0.708-0.235v0.708H402.322z M403.503,61.971
		l0.236-0.471l-0.473,0.235V61.5c0.314,0,0.473-0.156,0.473-0.473h-0.473v-0.236l-0.235-0.236l-0.473,0.473v0.236l0.473,0.471
		l-0.473,0.236l0.236,0.236c0,0.317,0.077,0.473,0.236,0.473l0.471-0.473V61.971z M404.683,52.529v-0.708l-0.708-0.236l0.236,1.416
		L404.683,52.529z M403.975,65.275l0.236,0.945l0.708-0.473l-0.236-0.236h0.236l-0.236-0.471l-0.236,0.235H403.975z M404.919,65.984
		v0.471l0.473,0.236V66.22L404.919,65.984z M409.874,125.465l-0.47,0.473l0.235,0.236v-0.236h0.235v-0.236V125.465z M411.999,63.624
		l0.235,0.236v-0.236l0.24-0.236l-0.24-0.236l-0.235,0.236V63.624z M414.124,61.971h0.235l-0.235-0.236V61.971z M414.595,61.263
		c-0.157,0-0.235-0.077-0.235-0.236L414.595,61.263z M416.955,51.586h0.475l-0.475-0.473V51.586z M417.195,50.642l0.47,0.236
		l-0.47-0.945V50.642z M417.43,47.809l0.235-0.236h-0.235V47.809z M417.9,49.698c0.157,0,0.235-0.078,0.235-0.236
		c-0.157,0-0.198,0.04-0.115,0.118C418.098,49.661,418.057,49.698,417.9,49.698z M418.375,46.865l-0.24,0.236
		C418.135,46.945,418.214,46.865,418.375,46.865z"/>
	<path fill="#FFFFFF" d="M449.058,130.659c-0.318,0-0.473,0.118-0.473,0.354s-0.159,0.354-0.473,0.354l-0.235,0.236h-0.945
		l-0.235-0.236c-0.159,0.159-0.318,0.236-0.473,0.236v0.236v-0.236l0.235,0.473c-0.159,0-0.473,0.081-0.943,0.236
		c-0.473,0.158-0.791,0.317-0.945,0.471v-0.236v0.236h-0.945c-0.316,5.038-0.867,9.991-1.65,14.871
		c-0.791,4.875-2.284,10.304-4.486,16.286c-0.318,0.944-0.473,1.652-0.473,2.124c-0.159,0-0.235,0.077-0.235,0.236v0.236
		c-0.159,1.571-0.708,3.341-1.653,5.311c-0.945,1.965-2.047,3.931-3.305,5.901c-1.261,1.965-2.637,3.854-4.131,5.665
		c-1.496,1.807-2.794,3.264-3.893,4.367l-0.237-0.236c-0.316,0.627-0.747,1.18-1.298,1.652c-0.553,0.473-1.143,0.863-1.77,1.18
		c-0.629,0.473-1.339,0.863-2.123,1.18c-0.473,0.313-1.577,0.473-3.305,0.473c-1.574-0.159-2.909-0.708-4.013-1.653
		c-1.1-0.944-1.888-2.047-2.36-3.304l0.237,0.473c-0.157-0.317-0.355-0.672-0.59-1.063c-0.237-0.394-0.355-0.748-0.355-1.061
		l0.235-0.236l-0.235-0.236v0.236v-0.944c-0.473-1.262-0.864-2.597-1.18-4.013c-0.313-1.416-0.59-2.637-0.826-3.658
		c-0.236-1.026-0.391-1.889-0.471-2.597c-0.078-0.709-0.119-0.985-0.119-0.826l0.236-0.473l-0.944-3.304l0.471-0.944
		c0-0.317-0.077-0.513-0.235-0.59c-0.156-0.081-0.236-0.199-0.236-0.354v-1.18l-0.236-2.124c0-0.159,0.081-0.318,0.236-0.473
		c0-0.159-0.077-0.317-0.236-0.473c-0.154-0.158-0.236-0.317-0.236-0.471v-4.249c0-0.944,0.04-1.969,0.119-3.068
		c0.081-1.103,0.118-2.206,0.118-3.304c0.317-5.193,0.984-10.74,2.007-16.641c1.025-5.901,2.242-11.997,3.659-18.293
		c-0.313-1.098-0.551-2.201-0.71-3.304c-0.154-1.098-0.154-2.279,0-3.541c0.159-1.257,0.355-2.555,0.59-3.894
		c0.237-1.335,0.749-2.791,1.535-4.367c0.318-0.313,0.749-1.298,1.298-2.95c0.551-1.652,1.454-3.105,2.715-4.367
		c2.36-8.652,4.797-17.031,7.316-25.138c2.515-8.102,4.875-15.379,7.081-21.834c2.201-6.451,4.092-11.802,5.666-16.05
		c1.57-4.249,2.515-6.764,2.833-7.554c0.154-0.313,0.39-0.708,0.708-1.18c0.473-0.785,1.494-1.18,3.068-1.18
		c2.515,0.159,4.248,0.826,5.193,2.007c0.943,1.18,1.415,2.164,1.415,2.95c-0.159,1.416-0.553,3.15-1.18,5.193
		c-0.629,2.047-1.533,4.761-2.713,8.143c-1.18,3.386-2.678,7.554-4.486,12.511c-1.812,4.956-3.896,11.133-6.256,18.528
		c-1.102,3.15-2.282,6.65-3.541,10.504c-1.261,3.858-2.36,7.83-3.303,11.92c5.348,3.777,9.283,8.303,11.802,13.572
		c2.515,5.274,3.93,11.135,4.248,17.585c2.042,0,4.089-0.627,6.136-1.888l0.237-0.236l0.943-0.709l0.237-0.471l0.708-0.473
		l0.708-0.944c0.313,0,0.473-0.077,0.473-0.236v-0.236l0.235-0.235l0.473-0.709l-0.235-0.236l0.473-0.708l0.47-0.473
		c0.157,0,0.237-0.077,0.237-0.235v-0.236c0.154,0,0.272-0.037,0.353-0.119c0.078-0.077,0.274-0.037,0.59,0.119
		c0.627,0,0.945,0.158,0.945,0.471c-0.159,0-0.235,0.082-0.235,0.236c-0.159,0.159-0.237,0.317-0.237,0.473
		c0,0.158,0.078,0.236,0.237,0.236l0.235,0.235c0,0.159-0.081,0.236-0.235,0.236h-0.237c0,0.159,0.078,0.236,0.237,0.236
		l0.235,0.236c0,0.158-0.081,0.236-0.235,0.236c-0.159,0-0.237,0.081-0.237,0.235c0,0.159,0.078,0.318,0.237,0.473
		c0.154,0,0.235-0.077,0.235-0.236l0.235,0.473l-0.235-0.236c-0.159,0-0.235,0.081-0.235,0.236l0.235,0.236l-0.235-0.236
		c0.154,0,0.313,0.081,0.47,0.236v-0.236l-0.47,0.471h0.235l-0.235-0.235l-0.473,0.944h0.235l0.237,0.236
		c0,0.158,0.037,0.235,0.118,0.235c0.076,0,0.118,0.082,0.118,0.236l-0.473,0.944v0.236c0-0.154-0.159,0.159-0.473,0.944
		c-0.316,0.789-0.629,1.339-0.943,1.653v-0.236v0.236c-0.159,0-0.237-0.077-0.237-0.236c0.157,0,0.237,0.159,0.237,0.473
		c-0.159,0-0.318,0.158-0.473,0.471c-0.159,0.318-0.394,0.632-0.708,0.945h-0.237l-0.708,0.944c-0.159,0.317-0.629,0.708-1.415,1.18
		h-0.237c-0.157,0.317-0.394,0.553-0.708,0.708c-0.316,0.159-0.629,0.317-0.943,0.473V130.659z M414.832,191.321
		c0.154,0,0.235,0.037,0.235,0.118c0,0.077,0.078,0.118,0.235,0.118h0.237l-0.237-0.235h0.473H414.832z M427.814,158.747
		c2.36-8.184,3.93-16.441,4.721-24.784c-1.89-0.154-3.937-0.391-6.138-0.708c-2.206-0.313-4.483-1.18-6.844-2.597
		c-1.104,4.566-1.929,9.405-2.48,14.516c-0.553,5.111-0.984,10.187-1.298,15.225c-0.316,3.145-0.473,6.214-0.473,9.205
		c0,2.987,0.078,5.978,0.237,8.969c-0.159,0.313-0.237,0.59-0.237,0.826s-0.081,0.509-0.235,0.826c0,0.627,0.154,0.944,0.473,0.944
		c0.473,0,1.256-0.748,2.36-2.242c1.1-1.498,2.28-3.386,3.541-5.666c1.256-2.282,2.478-4.721,3.658-7.316
		C426.279,163.35,427.183,160.95,427.814,158.747z M417.663,191.321c0.157,0,0.237-0.082,0.237-0.236h-0.237h-0.47
		C417.192,191.239,417.347,191.321,417.663,191.321z M421.203,188.961c0,0.154-0.157,0.391-0.47,0.708L421.203,188.961z
		 M424.274,106.111c-0.473,1.888-0.908,3.74-1.3,5.547c-0.394,1.811-0.747,3.658-1.06,5.546c0.154,0.473,0.745,1.222,1.77,2.243
		c1.021,1.026,3.893,2.324,8.614,3.894c-0.788-4.09-2.047-7.908-3.776-11.448C426.788,108.353,425.371,106.428,424.274,106.111z
		 M428.522,181.643c0.154-0.159,0.235-0.317,0.235-0.473c0,0.156-0.039,0.236-0.118,0.236
		C428.559,181.407,428.522,181.484,428.522,181.643z M434.658,171.022c0.154-0.159,0.237-0.317,0.237-0.473
		c0-0.158,0.076-0.317,0.235-0.471C434.812,170.391,434.658,170.705,434.658,171.022z M434.658,170.313
		c0-0.158,0.037-0.198,0.118-0.118c0.078,0.077,0.12,0.037,0.12-0.118C434.736,170.391,434.658,170.468,434.658,170.313
		c0-0.158,0-0.081,0,0.236V170.313z M436.311,166.772l0.235-0.235v-0.236L436.311,166.772z"/>
	<path fill="#FFFFFF" d="M580.53,170.078c0.313,0.154,0.708,0.391,1.18,0.708c0.943,0.627,1.415,1.653,1.415,3.068
		c0,4.563-1.733,6.846-5.193,6.846c-1.733-0.159-4.721-0.709-8.969-1.653c-4.248-0.944-10.267-2.164-18.056-3.658
		c-7.791-1.498-17.468-3.269-29.035-5.311c-11.565-2.047-25.531-4.407-41.897-7.081c-1.261,3.776-2.99,7.906-5.191,12.392
		c-2.206,4.485-5.039,8.615-8.499,12.392c-3.462,3.776-7.593,6.962-12.392,9.559c-4.797,2.597-10.345,3.894-16.64,3.894
		c-3.305,0-6.726-0.471-10.267-1.416c-3.541-0.944-6.924-2.324-10.152-4.131c-3.222-1.811-6.095-4.052-8.614-6.726
		c-2.516-2.678-4.404-5.666-5.666-8.97c-0.313-0.63-0.471-1.18-0.471-1.652c0-0.473-0.156-0.867-0.473-1.18h0.236
		c0-0.318-0.037-0.553-0.118-0.709c-0.078-0.158-0.119-0.394-0.119-0.708v0.236l0.236-0.236c-0.154,0-0.236-0.236-0.236-0.709
		c0-0.471-0.077-0.788-0.236-0.944c0-0.317,0.041-0.63,0.119-0.944c0.081-0.317,0.118-0.63,0.118-0.944l0.236-0.236l0.473-1.888
		c0.317-2.678,1.221-4.803,2.714-6.374c1.497-1.574,3.74-3.15,6.727-4.721l3.776-1.416c0.159,0,0.355-0.04,0.59-0.118
		c0.237-0.082,1.143-0.277,2.715-0.59c0.473-0.317,0.708-0.513,0.708-0.59c0-0.082,0.159-0.119,0.473-0.119h0.943
		c0.318,0,0.514-0.081,0.59-0.235c0.083-0.159,0.277-0.236,0.59-0.236c0.318,0,0.553,0.037,0.71,0.118
		c0.157,0.077,0.394,0.119,0.708,0.119c0.316-0.159,0.629-0.318,0.943-0.473c0.318-0.159,0.632-0.317,0.945-0.473l0.473,0.236
		l0.708-0.471l2.595-0.236c0.159,0,0.318,0.037,0.473,0.118c0.159,0.077,0.318,0.119,0.473,0.119c0.159,0,0.277-0.041,0.355-0.119
		c0.081-0.081,0.198-0.118,0.353-0.118h1.418l1.888-0.473c0.159,0,0.316,0.077,0.473,0.236c0.157,0.154,0.316,0.236,0.47,0.236
		c0.159,0,0.277-0.082,0.355-0.236c0.081-0.159,0.198-0.236,0.355-0.236l4.011-0.236c1.733-0.158,3.624-0.277,5.666-0.354
		c2.047-0.081,4.172-0.118,6.374-0.118c5.82,0,12.191,0.236,19.118,0.708c0.786-3.777,1.611-7.435,2.478-10.976
		c0.864-3.541,1.69-7.118,2.48-10.739l-0.945,1.415c-0.788,1.103-1.692,2.479-2.715,4.131c-1.023,1.653-2.241,3.305-3.658,4.957
		c-1.415,1.653-3.068,3.069-4.956,4.249s-4.013,1.77-6.374,1.77c-1.733,0-3.11-0.395-4.131-1.18
		c-1.021-0.789-1.888-1.693-2.595-2.715c-0.71-1.025-1.18-2.087-1.418-3.186c-0.235-1.1-0.353-1.966-0.353-2.597
		c0-5.978,0.47-11.721,1.415-17.232c0.945-5.506,1.969-10.935,3.068-16.286c2.987-14.476,5.862-24.939,8.616-31.393
		c2.75-6.451,4.758-9.678,6.019-9.678c0.945,0,1.888,0.277,2.833,0.826c0.943,0.553,1.729,1.18,2.36,1.888
		c0.627,0.709,1.335,1.693,2.123,2.95c0,0.789-0.235,1.852-0.708,3.187c-0.473,1.339-1.143,3.187-2.005,5.547
		c-0.867,2.36-1.888,5.392-3.068,9.088c-1.18,3.698-2.48,8.224-3.896,13.572c-0.632,2.205-1.415,4.919-2.36,8.143
		c-0.945,3.227-1.888,6.61-2.833,10.15c-0.943,3.541-1.77,7.044-2.478,10.503c-0.708,3.463-1.063,6.531-1.063,9.205
		c0,1.416,0.392,2.125,1.18,2.125c1.888,0,3.932-1.18,6.138-3.541c2.201-2.36,4.011-4.249,5.428-5.666l0.943-0.944l1.653-1.888
		l0.708-0.473l0.71-1.18c0-0.154,0.154-0.391,0.47-0.708l0.71-0.944l0.235,0.235l0.235-0.708c0.473-0.627,0.945-1.298,1.418-2.007
		c0.473-0.708,0.862-1.298,1.18-1.77l-0.237,0.236l-0.235,0.473l0.235,0.708l0.71-0.944v-0.709v-0.708
		c0.154,0,0.507-1.217,1.06-3.658c0.551-2.439,1.141-5.193,1.77-8.261c0.627-3.069,1.3-6.097,2.008-9.088
		c0.708-2.987,1.217-5.034,1.533-6.137c1.1-5.348,2.008-9.678,2.715-12.982c0.708-3.304,1.335-5.901,1.888-7.789
		c0.551-1.889,1.217-3.146,2.008-3.777c0.784-0.627,1.807-0.944,3.068-0.944c1.57,0,3.423,0.512,5.546,1.534
		c2.125,1.025,3.188,2.164,3.188,3.422c0,0.789-0.159,1.535-0.473,2.243c-0.318,0.708-0.749,1.77-1.298,3.187
		c-0.553,1.416-1.3,3.504-2.243,6.255c-0.945,2.755-2.125,6.491-3.541,11.212c-1.104,4.721-2.402,10.467-3.896,17.23
		c-1.496,6.768-3.345,15.029-5.546,24.784c0,0.318,0.154,0.473,0.473,0.473c0.47,0,1.335-0.863,2.596-2.597
		c1.259-1.73,2.987-4.639,5.193-8.733l0.473-1.18l0.235-0.709l0.235-0.236h-0.235c0-0.154,0.037-0.235,0.118-0.235
		c0.078,0,0.118-0.078,0.118-0.236l0.945-1.416l0.473-1.18c0.154-0.154,0.235-0.273,0.235-0.354c0-0.077,0.078-0.196,0.237-0.354
		l0.47-0.945l0.473-0.471h-0.235c0.627-1.257,1.415-2.516,2.36-3.777l-0.237,0.236l-0.235,0.471l0.235,0.945v-0.236h0.237
		l0.235-0.236l0.473-0.944l-0.235-0.473l-0.237-0.708l0.473-0.473v0.473l0.235-0.473v0.236l0.237-0.473v0.236l0.235-0.236v0.709
		h-0.235v-0.236c-0.318,0-0.473,0.159-0.473,0.473c0,0.158,0.078,0.235,0.235,0.235v-0.471c-0.157,0-0.081,0.158,0.237,0.471
		l-0.237,0.473l0.473-0.944l0.708-1.18c0.473-0.786,0.945-1.18,1.418-1.18v-0.473h0.235c0.313,0,0.627,0.082,0.945,0.236
		c0.314,0.159,0.473,0.394,0.473,0.708c0,0.159-0.12,0.318-0.355,0.473c-0.235,0.159-0.436,0.394-0.59,0.708v0.473
		c0,0.159,0.078,0.236,0.235,0.236c0,0.158-0.118,0.236-0.353,0.236c-0.237,0-0.355,0.158-0.355,0.471
		c0,0.159,0.078,0.317,0.237,0.473c0,0.317-0.159,0.513-0.473,0.59c-0.318,0.081-0.473,0.277-0.473,0.59
		c0,0.158,0.037,0.317,0.118,0.471c0.078,0.159,0.118,0.318,0.118,0.473h-0.47l0.235,0.708l-0.708,1.416
		c0,0.159-0.081,0.236-0.237,0.236s-0.235,0.081-0.235,0.236v0.471l-0.473,0.945l-0.235,1.18c0,0.158-0.081,0.198-0.237,0.118
		c-0.157-0.077-0.235,0.04-0.235,0.354v0.236v0.236l-0.945,2.36c-0.47,0.944-1.06,2.518-1.77,4.721
		c-0.708,2.205-1.65,4.485-2.831,6.845c-1.18,2.36-2.637,4.404-4.368,6.137c-1.733,1.73-3.776,2.597-6.136,2.597h-0.945
		c-0.316,1.098-0.59,2.242-0.825,3.422c-0.237,1.18-0.514,2.397-0.828,3.659c10.859,0.944,21.871,2.124,33.046,3.541
		c11.173,1.415,21.4,2.909,30.685,4.485c9.285,1.571,17.074,3.028,23.369,4.367C575.728,168.462,579.426,169.446,580.53,170.078z
		 M433.005,191.085c0.788,0.313,1.616,0.471,2.478,0.471c0.867,0,1.692,0,2.478,0c3.778,0,7.282-0.825,10.504-2.478
		c3.227-1.653,6.214-3.817,8.969-6.491c2.752-2.677,5.113-5.824,7.081-9.442c1.966-3.621,3.501-7.398,4.603-11.329
		c-2.519-0.318-5.039-0.436-7.554-0.355c-2.519,0.078-5.115-0.04-7.789-0.354l-0.945-0.236h-0.708h-0.943
		c0,0.156-0.157,0.196-0.473,0.119c-0.313-0.082-0.473-0.04-0.473,0.118h-1.415h-0.71h-3.541h-0.943h0.235
		c-1.256,0.156-2.515,0.273-3.776,0.354c-1.259,0.078-2.515,0.119-3.778,0.119h-0.47l-1.18,0.236l-0.473-0.236
		c0,0.154-0.154,0.236-0.473,0.236l-2.596,0.235l-2.125,0.236h-1.415l-1.18,0.236v-0.236l-0.945,0.236
		c-1.888,0.154-3.776,0.55-5.666,1.18l0.473-0.236l0.945-0.944h-0.237l0.473-0.236h-0.235l0.473-0.236
		c0.316-0.317,0.906-0.553,1.77-0.708c0.867-0.159,1.614-0.236,2.241-0.236h0.237c0.316-0.317,1.026-0.513,2.123-0.59
		c1.104-0.081,1.812-0.118,2.125-0.118h0.473c0.943-0.317,1.851-0.513,2.713-0.59c0.867-0.082,1.77-0.199,2.715-0.354l-0.235,0.235
		c0.157,0,0.235,0.037,0.235,0.119c0,0.077,0.081,0.118,0.235,0.118c0-0.317,0.632-0.513,1.89-0.59
		c1.261-0.081,2.047-0.118,2.36-0.118h1.888h0.708c0.318-0.159,0.708-0.236,1.18-0.236c-0.627,0-1.1-0.081-1.415-0.236h-3.778
		l-2.36-0.471l-1.653,0.235c-0.154,0-0.314,0.037-0.47,0.119c-0.157,0.077-0.392,0.118-0.71,0.118l-0.708-0.236l-4.483,0.945
		c-0.314,0-0.551-0.042-0.71-0.119c-0.154-0.081-0.39-0.118-0.708-0.118c-0.313,0-0.509,0.077-0.59,0.236
		c-0.076,0.154-0.196,0.235-0.353,0.235l-1.89,0.236l-2.596,0.709c-0.154,0-0.313-0.041-0.473-0.119
		c-0.154-0.081-0.39-0.118-0.708-0.118l-0.708,0.708l-1.418,0.473c-3.617,0.785-6.254,1.965-7.906,3.541
		c-1.653,1.571-2.478,3.304-2.478,5.192c0,1.889,0.671,3.973,2.005,6.256c1.339,2.279,3.11,4.403,5.311,6.372
		c2.206,1.966,4.838,3.696,7.909,5.193C426.514,189.628,429.7,190.612,433.005,191.085z M415.065,193.209l-1.415-1.18l-1.888-0.944
		l1.415,0.944l0.473,0.473L415.065,193.209z M418.135,194.153l-1.18-0.708l-1.418-0.709v0.473l1.18,0.708l-0.235,0.236l1.415,0.473
		L418.135,194.153z M418.843,194.153c-0.313-0.317-0.627-0.513-0.945-0.59c-0.313-0.081-0.627-0.277-0.943-0.59h-0.473l2.36,1.416
		V194.153z M431.352,199.346v-0.236c-0.473-0.159-0.982-0.277-1.535-0.354c-0.549-0.082-1.06-0.199-1.533-0.354h0.235l1.18,0.471
		L431.352,199.346z M428.757,160.871c0-0.158-0.078-0.235-0.237-0.235L428.757,160.871z M430.88,160.4h-0.473h0.237H430.88z
		 M432.06,160.636l-0.473,0.235h0.473V160.636z M433.948,199.583c-0.313,0-0.59-0.041-0.825-0.119
		c-0.235-0.081-0.509-0.118-0.825-0.118c0.157,0,0.277,0.037,0.353,0.118c0.081,0.077,0.277,0.119,0.59,0.119H433.948z
		 M432.533,160.4c0.788,0,1.18-0.159,1.18-0.473L432.533,160.4z M436.073,160.871h1.18l-0.235-0.235h-0.473L436.073,160.871z
		 M436.546,160.4v-0.236l-0.237,0.236H436.546z M436.546,160.164l0.473-0.236h-0.473V160.164z M442.682,159.927v0.236
		c0.159,0,0.277-0.04,0.355-0.118c0.081-0.082,0.198-0.119,0.353-0.119H442.682z M445.515,159.691v0.236
		c0.159,0,0.235-0.081,0.235-0.236H445.515z"/>
</g>
</svg>
